<svg xmlns="http://www.w3.org/2000/svg" width="512" height="512" viewBox="0 0 512 512" version="1.1"><path d="" stroke="none" fill="#080404" fill-rule="evenodd"/><path d="M 246.500 10.652 C 212.921 14.591, 190.071 20.616, 165.197 32.090 L 156.893 35.920 152.197 32.624 C 145.478 27.909, 141.481 26.585, 134.046 26.610 C 125.865 26.638, 119.857 29.183, 113.140 35.466 C 104.647 43.410, 101.379 55.692, 104.928 66.326 L 106.205 70.152 94.971 81.326 C 88.792 87.472, 83.081 93.494, 82.280 94.709 C 80.386 97.581, 81.451 102.613, 84.337 104.430 C 90.133 108.079, 90.327 107.984, 103.517 94.944 L 115.893 82.708 121.197 85.073 C 128.326 88.252, 139.474 88.387, 146.051 85.374 C 151.258 82.988, 157.580 77.740, 159.959 73.826 L 161.586 71.152 173.043 74.920 C 192.897 81.449, 211.103 89.417, 229.500 99.630 L 237.500 104.071 237.177 110.809 C 236.979 114.935, 237.419 119.187, 238.312 121.780 L 239.770 126.013 229.557 135.471 C 218.432 145.773, 202.877 162.842, 193.651 174.873 L 187.802 182.500 179.651 182.517 C 173.317 182.530, 170.386 183.043, 166.500 184.816 C 161.035 187.311, 154.659 192.930, 152.392 197.250 C 150.996 199.910, 150.679 200, 142.724 200.002 C 124.651 200.008, 93.129 203.226, 70.124 207.414 L 57.748 209.668 51.874 203.627 C 48.643 200.305, 46 197.010, 46 196.305 C 46 193.684, 52.404 175.131, 57.051 164.293 C 59.693 158.129, 64.588 148.343, 67.928 142.545 C 71.267 136.747, 74 131.068, 74 129.925 C 74 126.957, 68.701 122, 65.529 122 C 61.859 122, 59.290 125.149, 51.989 138.600 C 44.871 151.712, 36.284 172.311, 32.669 184.949 L 30.251 193.398 24.636 194.674 C 13.399 197.226, 7.028 202.299, 2.434 212.352 C 0.054 217.561, -0.191 219.100, 0.207 226.352 C 0.728 235.843, 2.955 241.018, 9.074 246.956 C 11.269 249.086, 15.008 251.632, 17.383 252.615 L 21.702 254.401 22.867 270.720 C 27.319 333.092, 52.579 388.747, 95.918 431.668 L 105.176 440.837 104.068 446.175 C 101.306 459.478, 108.434 472.964, 121.500 479.155 C 131.487 483.887, 145.252 482.607, 152.225 476.297 C 153.850 474.825, 154.673 475.023, 162.947 478.867 C 228.684 509.409, 302.653 509.874, 368.864 480.161 L 380.229 475.061 384.364 477.850 C 390.789 482.183, 394.956 483.505, 402 483.443 C 421.508 483.271, 436.497 464.325, 431.623 446 L 430.160 440.500 441.873 428.500 C 478.514 390.958, 500.822 346.535, 509.666 293.500 C 512.290 277.760, 512.297 234.229, 509.676 218.673 C 504.711 189.195, 494.915 159.907, 482.973 138.832 L 478.890 131.627 482.195 125.113 C 485.102 119.384, 485.491 117.690, 485.429 111.050 C 485.376 105.391, 484.798 102.339, 483.122 98.864 C 476.153 84.411, 461.710 77.326, 447.587 81.432 L 441.840 83.102 434.170 75.801 C 428.738 70.630, 426.596 67.916, 426.830 66.500 C 427.011 65.400, 427.204 61.125, 427.259 57 C 427.337 51.099, 426.871 48.490, 425.075 44.764 C 417.817 29.704, 399.806 22.466, 385.512 28.865 C 382.769 30.093, 379.570 31.995, 378.403 33.091 L 376.281 35.084 366.891 30.941 C 334.112 16.478, 301.828 9.825, 266.006 10.150 C 256.928 10.232, 248.150 10.458, 246.500 10.652 M 237.775 27.472 C 223.374 29.525, 212.824 31.811, 200.316 35.589 C 189.793 38.767, 166.461 48.146, 164.695 49.908 C 164.252 50.349, 164.178 51.860, 164.530 53.264 C 165.080 55.455, 166.400 56.198, 173.836 58.502 C 189.255 63.279, 210.091 71.984, 228.177 81.202 L 245.855 90.212 249.246 87.626 C 259.095 80.114, 275.841 80.065, 285.615 87.520 C 287.403 88.884, 289.156 90, 289.510 90 C 289.864 90, 295.111 87.237, 301.170 83.861 C 314.958 76.177, 336.662 66.727, 353.737 60.974 L 366.832 56.562 367.208 52.620 L 367.584 48.678 359.542 44.967 C 344.371 37.965, 323.809 31.845, 304 28.435 C 290.828 26.168, 250.987 25.588, 237.775 27.472 M 129.352 43.092 C 124.985 44.357, 120.353 49.952, 119.502 54.988 C 117.461 67.068, 131.945 76.516, 142.102 69.730 C 151.715 63.309, 150.945 49.056, 140.718 44.105 C 136.033 41.838, 134.236 41.678, 129.352 43.092 M 392 43.121 C 380.178 47.821, 379.146 65.045, 390.367 70.370 C 400.496 75.177, 411.993 68.143, 411.998 57.136 C 412.003 47.341, 400.921 39.574, 392 43.121 M 356 76.879 C 339.172 82.834, 327.170 88.106, 310.500 96.866 L 297.500 103.698 297.826 110.099 C 298.028 114.070, 297.565 118.226, 296.605 121.047 L 295.059 125.594 313.293 144.047 C 332.709 163.696, 344.298 177.829, 357.535 198 C 365.917 210.771, 381 237.642, 381 239.802 C 381 240.600, 383.005 241, 387 241 C 390.300 241, 393.334 241.113, 393.743 241.250 C 395.715 241.913, 418.437 197.049, 426.537 176.500 C 429.138 169.900, 433.230 158.675, 435.629 151.556 L 439.990 138.612 435.113 134.056 C 428.165 127.566, 425.752 122.280, 425.207 112.352 C 424.813 105.178, 425.065 103.537, 427.315 98.623 L 429.870 93.042 423.261 87.077 L 416.652 81.112 414.055 82.960 C 406.501 88.340, 393.997 89.304, 384.764 85.220 C 379.635 82.951, 372.385 76.787, 371.475 73.922 C 371.140 72.865, 370.558 72.023, 370.183 72.051 C 369.807 72.079, 363.425 74.252, 356 76.879 M 448.467 97.998 C 440.945 101.721, 438.210 110.410, 442.204 117.895 C 446.149 125.285, 454.106 127.942, 461.619 124.377 C 472.294 119.311, 472.541 103.378, 462.026 98.013 C 457.050 95.475, 453.572 95.471, 448.467 97.998 M 263 97.722 C 256.708 100.086, 252.833 105.817, 252.833 112.761 C 252.833 123.518, 265.551 130.620, 274.759 125.005 C 281.534 120.875, 283.890 112.289, 280.248 105 C 277.505 99.508, 268.433 95.680, 263 97.722 M 233.474 154.232 C 224.570 163.179, 213.599 175.163, 209.094 180.862 C 201.243 190.795, 200.970 191.311, 202.494 193.362 C 203.368 194.538, 204.852 197.152, 205.791 199.171 C 207.466 202.774, 207.648 202.864, 215.499 203.964 C 263.011 210.625, 309.912 224.539, 351.280 244.247 C 362.795 249.733, 364.237 250.192, 365.619 248.810 C 367.001 247.428, 366.650 246.265, 362.127 237.253 C 352.585 218.238, 340.056 198.925, 325.312 180.500 C 316.096 168.984, 296.770 148.506, 288.889 141.908 L 284.279 138.047 279.889 140.254 C 273.642 143.394, 261.479 143.377, 254.582 140.217 L 249.663 137.964 233.474 154.232 M 459.923 141.273 L 455.346 142.271 451.547 153.885 C 442.760 180.748, 428.239 213.628, 413.822 239.305 L 407.755 250.110 409.829 252.318 C 414.709 257.512, 417.820 269.179, 416.268 276.468 L 415.424 280.435 426.462 288.368 C 444.168 301.091, 459.919 314.169, 475.083 328.737 L 482.666 336.022 486.320 324.261 C 493.497 301.162, 496.294 281.990, 496.281 256 C 496.266 228.569, 492.271 204.461, 483.521 179 C 479.744 168.010, 466.522 139.900, 465.242 140.138 C 464.834 140.213, 462.440 140.724, 459.923 141.273 M 171.241 199.995 C 161.236 206.095, 161.680 221.053, 172.020 226.248 C 181.768 231.146, 193.005 224.103, 192.996 213.102 C 192.987 201.541, 180.774 194.182, 171.241 199.995 M 21.861 212.448 C 14.078 217.737, 13.171 228.406, 19.929 235.164 C 24.743 239.979, 29.574 240.952, 35.873 238.376 C 43.655 235.194, 47.100 225.686, 43.248 218.020 C 39.308 210.178, 29.112 207.521, 21.861 212.448 M 129.500 216.655 C 127.850 216.850, 119.750 217.718, 111.500 218.582 C 103.250 219.447, 88.921 221.245, 79.657 222.577 C 70.394 223.910, 62.457 225, 62.021 225 C 61.584 225, 60.940 226.916, 60.589 229.257 C 59.036 239.614, 52.044 248.726, 42.701 252.570 C 37.245 254.813, 37.271 254.673, 39.060 272.144 C 44.608 326.319, 69.234 380.927, 104.980 418.318 L 114.051 427.806 118.051 425.653 L 122.052 423.500 121.276 414 C 120.010 398.504, 120.591 365.735, 122.411 350 C 126.630 313.506, 136.129 278.701, 150.734 246.220 C 155.734 235.102, 156.113 233.778, 154.745 232.220 C 152.568 229.743, 149.359 223.032, 148.543 219.250 L 147.841 216 140.171 216.150 C 135.952 216.232, 131.150 216.460, 129.500 216.655 M 208.366 220.702 C 205.247 229.933, 198.576 237.488, 190.176 241.300 C 186.569 242.937, 183.632 243.406, 177.330 243.351 L 169.160 243.280 163.149 257.390 C 155.453 275.457, 151.146 288.030, 146.669 305.500 C 139.129 334.923, 136.552 355.936, 136.552 388 C 136.551 411.268, 137.280 421, 139.024 421 C 142.643 421, 151.313 425.662, 155.582 429.905 L 160.500 434.793 174 429.375 C 218.816 411.392, 262.674 384.884, 299.500 353.524 C 317.004 338.619, 355.602 298.558, 360.259 290.465 C 360.690 289.716, 360.192 287.708, 359.107 285.823 C 356.541 281.361, 354.855 272.761, 355.614 268.011 L 356.233 264.142 349.332 260.667 C 330.939 251.405, 302.130 240.354, 278.805 233.614 C 256.692 227.225, 245.484 224.838, 212.237 219.435 C 209.692 219.021, 208.840 219.300, 208.366 220.702 M 381.684 257.489 C 372.419 260.696, 368.495 269.817, 372.852 278.016 C 380.420 292.258, 402.287 286.063, 400.665 270.136 C 399.676 260.437, 390.612 254.397, 381.684 257.489 M 404.489 296.013 C 402.723 297.964, 402.749 298.382, 405.370 309.763 C 407.996 321.172, 410.996 337.175, 410.999 339.795 C 411.001 342.273, 406.196 346, 403 346 C 397.579 346, 395.591 342.809, 393.641 330.980 C 392.691 325.216, 390.894 316.450, 389.647 311.500 L 387.380 302.500 382.940 301.909 C 380.498 301.583, 377.354 300.995, 375.953 300.601 C 373.631 299.948, 372.446 301.012, 362.492 312.693 C 313.764 369.869, 251.283 415.013, 182.057 443.061 L 165.614 449.723 164.421 455.611 C 163.766 458.850, 163.290 461.552, 163.365 461.615 C 163.439 461.679, 167.775 463.650, 173 465.996 C 191.074 474.110, 210.790 480.083, 231 483.568 C 245.785 486.116, 279.549 486.631, 295.850 484.557 C 318.787 481.637, 343.314 474.640, 362.816 465.453 L 372.132 461.064 371.473 456.669 C 370.592 450.791, 373.144 441.105, 377.083 435.380 C 380.855 429.896, 387.089 425.236, 392.635 423.753 L 396.777 422.645 397.363 416.072 C 397.685 412.458, 398.252 402.571, 398.621 394.103 C 399.193 381.013, 399.571 378.429, 401.147 376.853 C 403.726 374.274, 409.426 374.426, 412.146 377.146 C 414.248 379.248, 414.282 379.756, 413.748 401.608 L 413.203 423.922 416.764 426.023 L 420.325 428.124 427.252 421.312 C 443.551 405.283, 460.629 382.094, 470.991 361.923 L 476.180 351.821 473.840 349.273 C 468.866 343.859, 446.967 324.329, 436 315.527 C 424.898 306.617, 407.779 294, 406.791 294 C 406.526 294, 405.490 294.906, 404.489 296.013 M 126.182 439.030 C 121.696 441.765, 118.611 448.737, 119.516 454.094 C 120.871 462.112, 130.306 468.207, 137.965 466.010 C 144.119 464.245, 149.001 457.957, 148.998 451.800 C 148.993 440.456, 135.880 433.118, 126.182 439.030 M 395.396 439.374 C 388.050 442.703, 384.985 452.642, 389.065 459.902 C 391.453 464.151, 397.528 468, 401.848 468 C 408.155 468, 415.377 461.837, 416.580 455.427 C 417.476 450.647, 414.690 443.627, 410.794 440.854 C 407.030 438.173, 399.618 437.461, 395.396 439.374" stroke="none" fill="#040404" fill-rule="evenodd"/></svg>