<svg xmlns="http://www.w3.org/2000/svg" width="896" height="980" viewBox="0 0 896 980" version="1.1"><path d="M 264.750 48.560 C 258.837 51.562, 254 54.242, 254 54.517 C 254 54.964, 275.900 44.326, 276.917 43.386 C 278.443 41.973, 274.024 43.852, 264.750 48.560 M 239.750 61.566 C 237.137 62.926, 235 64.262, 235 64.536 C 235 64.810, 237.250 63.894, 240 62.500 C 242.750 61.106, 245 59.749, 245 59.483 C 245 58.822, 245.090 58.786, 239.750 61.566 M 184.750 74.061 C 181.037 76.288, 178 78.363, 178 78.670 C 178 78.978, 179.012 78.578, 180.250 77.780 C 181.488 76.983, 184.637 75.089, 187.250 73.570 C 191.274 71.232, 192.852 69.981, 191.750 70.005 C 191.613 70.008, 188.463 71.833, 184.750 74.061 M 220.036 76.324 C 220.841 77.053, 226.675 82.528, 233 88.492 L 244.500 99.335 233.028 87.917 C 226.718 81.638, 221.656 76.162, 221.778 75.750 C 221.900 75.338, 221.229 75, 220.286 75 C 218.793 75, 218.760 75.171, 220.036 76.324 M 376.155 79 C 376.155 79.825, 376.985 82.750, 378 85.500 C 379.015 88.250, 379.845 89.825, 379.845 89 C 379.845 88.175, 379.015 85.250, 378 82.500 C 376.985 79.750, 376.155 78.175, 376.155 79 M 163.945 88.361 C 160.400 91.310, 156.375 95.018, 155 96.601 C 153.625 98.185, 154.975 97.231, 158 94.483 C 161.025 91.734, 165.300 88.042, 167.500 86.276 C 169.700 84.511, 171.250 83.052, 170.945 83.034 C 170.639 83.015, 167.489 85.413, 163.945 88.361 M 197.903 89.375 C 193.831 92.881, 188.925 97.487, 187 99.611 C 185.075 101.735, 186.650 100.542, 190.500 96.960 C 194.350 93.378, 199.525 88.781, 202 86.743 C 204.475 84.706, 206.231 83.030, 205.903 83.020 C 205.574 83.009, 201.974 85.869, 197.903 89.375 M 401 95.345 C 401 96.435, 416.961 128, 417.512 128 C 417.959 128, 402.333 96.100, 401.387 95.083 C 401.174 94.854, 401 94.972, 401 95.345 M 233 106 C 237.454 111.500, 241.323 116, 241.598 116 C 241.873 116, 238.454 111.500, 234 106 C 229.546 100.500, 225.677 96, 225.402 96 C 225.127 96, 228.546 100.500, 233 106 M 269.500 123.363 C 286.109 139.691, 295.171 147.912, 296.500 147.854 L 298.500 147.768 296.500 147.266 C 295.400 146.989, 283.250 135.968, 269.500 122.774 L 244.500 98.784 269.500 123.363 M 383.389 106.820 C 383.667 107.271, 379.826 109.633, 374.853 112.070 C 369.880 114.506, 365.586 116.863, 365.312 117.306 C 365.037 117.750, 369.320 115.850, 374.829 113.086 C 384.751 108.107, 387.626 106, 384.500 106 C 383.610 106, 383.110 106.369, 383.389 106.820 M 150.042 114.316 C 149.960 115.902, 152.329 119.549, 156.007 123.500 C 158.055 125.700, 178.129 145.718, 200.615 167.984 L 241.500 208.467 197.570 164.319 C 173.408 140.038, 152.840 118.670, 151.862 116.836 C 150.884 115.001, 150.065 113.867, 150.042 114.316 M 250 127 C 254.454 132.500, 258.323 137, 258.598 137 C 258.873 137, 255.454 132.500, 251 127 C 246.546 121.500, 242.677 117, 242.402 117 C 242.127 117, 245.546 121.500, 250 127 M 380 122.143 L 374.500 127.222 379.747 123.020 C 384.349 119.336, 386.782 116.932, 385.809 117.032 C 385.639 117.049, 383.025 119.349, 380 122.143 M 395 125.362 C 395 126.447, 400.968 138, 401.529 138 C 401.804 138, 400.619 135.188, 398.896 131.750 C 395.630 125.234, 395 124.202, 395 125.362 M 423 139 C 424.666 142.300, 426.254 145, 426.529 145 C 426.804 145, 425.666 142.300, 424 139 C 422.334 135.700, 420.746 133, 420.471 133 C 420.196 133, 421.334 135.700, 423 139 M 321.741 141.374 C 316.937 144.327, 315.596 145.722, 319.500 143.703 C 322.635 142.083, 326.863 139.064, 326 139.063 C 325.725 139.063, 323.808 140.103, 321.741 141.374 M 190.550 140.822 C 191.072 141.274, 196.450 145.649, 202.500 150.544 C 216.358 161.757, 237.083 182.477, 247.500 195.534 C 251.900 201.049, 256.780 207.123, 258.345 209.031 L 261.189 212.500 258.432 208.500 C 247.099 192.062, 220.709 164.109, 203.254 150.056 C 196.652 144.740, 194.365 142.355, 195.254 141.712 C 196.116 141.089, 195.960 140.985, 194.750 141.374 C 193.787 141.684, 193 141.501, 193 140.969 C 193 140.436, 192.235 140, 191.300 140 C 190.308 140, 189.996 140.342, 190.550 140.822 M 408.500 152 C 409.894 154.750, 411.259 157, 411.534 157 C 411.809 157, 410.894 154.750, 409.500 152 C 408.106 149.250, 406.741 147, 406.466 147 C 406.191 147, 407.106 149.250, 408.500 152 M 375.500 182 C 376.600 182.473, 377.024 182.891, 376.441 182.930 C 375.859 182.968, 374.509 183.697, 373.441 184.548 C 371.751 185.897, 371.924 185.891, 374.783 184.506 C 378.091 182.903, 378.324 180.940, 375.191 181.070 C 373.812 181.128, 373.870 181.299, 375.500 182 M 378.250 192.544 C 372.063 197.219, 367 201.266, 367 201.537 C 367 201.809, 372.210 198.117, 378.579 193.334 C 387.951 186.294, 390.348 184.910, 391.155 186.068 C 392.019 187.309, 392.100 187.308, 391.764 186.063 C 391.550 185.272, 390.953 184.494, 390.438 184.334 C 389.922 184.175, 384.438 187.869, 378.250 192.544 M 348.333 215.980 C 341.641 221.448, 335.856 226.424, 335.476 227.038 C 334.852 228.049, 356.481 210.694, 359.964 207.389 C 364.039 203.523, 359.230 207.075, 348.333 215.980 M 244.387 213.297 C 246.507 215.883, 248.450 218, 248.704 218 C 249.386 218, 243.053 210.151, 241.693 209.310 C 241.055 208.916, 242.267 210.710, 244.387 213.297 M 539.401 211.886 C 541.067 212.540, 540.908 212.795, 538.119 213.951 C 536.368 214.676, 535.133 215.467, 535.375 215.708 C 535.617 215.950, 537.221 215.420, 538.940 214.531 C 542.119 212.887, 542.260 210.943, 539.191 211.070 C 537.766 211.130, 537.799 211.258, 539.401 211.886 M 552.750 219.068 C 550.688 220.157, 549 221.271, 549 221.544 C 549 221.817, 550.815 221.114, 553.034 219.983 C 555.253 218.851, 557.503 218.193, 558.034 218.521 C 558.565 218.849, 559 218.641, 559 218.059 C 559 216.506, 556.987 216.831, 552.750 219.068 M 655.920 219.070 C 658.901 220.128, 661.513 220.821, 661.724 220.609 C 662.191 220.143, 653.082 216.970, 651.572 217.073 C 650.982 217.113, 652.939 218.012, 655.920 219.070 M 252.521 223.896 C 254.537 226.703, 256.392 229, 256.642 229 C 257.329 229, 251.131 220.199, 249.914 219.447 C 249.331 219.086, 250.504 221.088, 252.521 223.896 M 305.276 232.750 C 296.574 241.289, 296.190 241.762, 303.410 235.051 C 308.409 230.405, 313.615 225.567, 314.977 224.301 C 316.340 223.036, 317.180 222, 316.843 222 C 316.507 222, 311.302 226.838, 305.276 232.750 M 498.750 232.559 C 489.538 237.208, 482 241.236, 482 241.511 C 482 241.958, 515.900 225.333, 516.917 224.388 C 518.571 222.849, 513.230 225.252, 498.750 232.559 M 320.534 240.966 C 313.419 248.097, 307.801 254.059, 308.049 254.216 C 308.297 254.372, 314.331 248.537, 321.459 241.250 C 328.586 233.963, 334.204 228, 333.944 228 C 333.684 228, 327.650 233.834, 320.534 240.966 M 638.920 239.070 C 641.901 240.128, 644.513 240.821, 644.724 240.609 C 645.191 240.143, 636.082 236.970, 634.572 237.073 C 633.982 237.113, 635.939 238.012, 638.920 239.070 M 402.300 246 C 402.300 249.025, 402.487 250.262, 402.716 248.750 C 402.945 247.238, 402.945 244.762, 402.716 243.250 C 402.487 241.738, 402.300 242.975, 402.300 246 M 728.083 247.386 C 729.100 248.327, 751 258.964, 751 258.517 C 751 257.963, 729.439 247, 728.350 247 C 727.974 247, 727.854 247.174, 728.083 247.386 M 418.328 260.500 C 418.333 264.350, 418.513 265.802, 418.730 263.728 C 418.946 261.653, 418.943 258.503, 418.722 256.728 C 418.501 254.952, 418.324 256.650, 418.328 260.500 M 481.987 260.634 C 476.031 264.579, 472.623 267.526, 477.500 264.514 C 485.689 259.458, 489.037 257, 487.737 257 C 487.592 257, 485.004 258.635, 481.987 260.634 M 763.500 265.726 C 764.050 266.251, 766.300 267.691, 768.500 268.926 C 770.700 270.161, 771.600 270.424, 770.500 269.510 C 768.266 267.653, 761.931 264.228, 763.500 265.726 M 429 273 C 423.225 276.848, 418.855 279.997, 419.288 279.998 C 420.053 280, 437.536 268.613, 439.450 266.867 C 441.821 264.704, 438.715 266.527, 429 273 M 402.310 273.500 C 402.315 276.800, 402.502 278.029, 402.725 276.232 C 402.947 274.435, 402.943 271.735, 402.715 270.232 C 402.486 268.729, 402.304 270.200, 402.310 273.500 M 454.744 278.512 C 447.735 283.193, 442 287.252, 442 287.531 C 442 288.026, 465.558 272.604, 467.450 270.870 C 469.925 268.603, 466.460 270.687, 454.744 278.512 M 781 276.302 C 781 276.530, 783.587 278.378, 786.750 280.408 C 789.913 282.438, 791.269 283.053, 789.765 281.774 C 786.796 279.250, 781 275.632, 781 276.302 M 793.243 284.583 C 793.569 285.111, 795.976 287.080, 798.593 288.959 C 801.209 290.838, 803.084 291.944, 802.757 291.417 C 802.431 290.889, 800.024 288.920, 797.407 287.041 C 794.791 285.162, 792.916 284.056, 793.243 284.583 M 530.713 296.539 C 528.128 301.743, 526.231 306, 526.497 306 C 527.161 306, 536.212 287.879, 535.768 287.435 C 535.573 287.239, 533.297 291.336, 530.713 296.539 M 722.647 298 C 718.985 303.500, 716.205 308, 716.469 308 C 716.733 308, 719.580 304.063, 722.795 299.250 C 729.611 289.051, 730.257 288, 729.712 288 C 729.488 288, 726.309 292.500, 722.647 298 M 736.710 301.535 C 734.679 305.641, 733.232 309, 733.496 309 C 734.164 309, 741.212 294.878, 740.766 294.433 C 740.567 294.233, 738.742 297.430, 736.710 301.535 M 769.934 297.810 C 771.273 298.897, 773.748 300.547, 775.434 301.476 L 778.500 303.167 776.066 301.190 C 774.727 300.103, 772.252 298.453, 770.566 297.524 L 767.500 295.833 769.934 297.810 M 621 298.500 C 619.075 299.241, 618.175 299.848, 619 299.848 C 619.825 299.848, 622.075 299.241, 624 298.500 C 625.925 297.759, 626.825 297.152, 626 297.152 C 625.175 297.152, 622.925 297.759, 621 298.500 M 383.763 304.832 C 384.634 305.385, 381.489 308.641, 373.624 315.330 C 367.354 320.663, 361.611 325.788, 360.862 326.721 C 360.113 327.653, 365.453 323.315, 372.730 317.080 C 384.769 306.764, 387.113 303.971, 383.691 304.015 C 382.827 304.026, 382.847 304.251, 383.763 304.832 M 785 307.425 C 785 307.700, 787.700 309.759, 791 312 C 794.300 314.241, 797 315.850, 797 315.575 C 797 315.300, 794.300 313.241, 791 311 C 787.700 308.759, 785 307.150, 785 307.425 M 706.767 320.250 C 702.104 326.438, 695.659 334.845, 692.444 338.933 C 689.230 343.021, 687.084 346.066, 687.675 345.701 C 688.266 345.336, 693.675 338.616, 699.696 330.768 C 714.456 311.529, 716.320 309, 715.741 309 C 715.468 309, 711.430 314.063, 706.767 320.250 M 840.045 324.442 C 846.944 331.624, 855.210 340.425, 858.412 344 C 863.565 349.752, 863.732 349.867, 859.870 345 C 857.470 341.975, 849.204 333.174, 841.503 325.442 L 827.500 311.383 840.045 324.442 M 305.300 322 C 305.300 325.025, 305.487 326.262, 305.716 324.750 C 305.945 323.238, 305.945 320.762, 305.716 319.250 C 305.487 317.738, 305.300 318.975, 305.300 322 M 802 319.318 C 802 319.561, 804.587 321.701, 807.750 324.075 C 810.913 326.448, 812.958 327.718, 812.295 326.897 C 810.937 325.214, 802 318.635, 802 319.318 M 379.682 333.497 C 371.057 340.370, 364 346.222, 364 346.501 C 364 346.780, 370.778 341.597, 379.062 334.983 C 387.346 328.370, 394.546 323.219, 395.062 323.538 C 395.578 323.857, 396 323.416, 396 322.559 C 396 321.702, 395.857 321, 395.682 321 C 395.507 321, 388.307 326.623, 379.682 333.497 M 438 328.500 C 441.575 330.372, 444.950 331.903, 445.500 331.903 C 446.050 331.903, 443.575 330.372, 440 328.500 C 436.425 326.628, 433.050 325.097, 432.500 325.097 C 431.950 325.097, 434.425 326.628, 438 328.500 M 512.822 329.142 C 511.582 331.008, 511.084 331.130, 508.950 330.087 C 506.624 328.950, 506.599 328.969, 508.460 330.458 C 509.537 331.321, 510.849 331.884, 511.374 331.709 C 512.426 331.358, 515.545 327, 514.744 327 C 514.469 327, 513.604 327.964, 512.822 329.142 M 345.831 339.793 C 338.863 346.232, 326.856 357.485, 319.148 364.801 L 305.134 378.102 304.727 374.801 C 304.327 371.558, 304.317 371.567, 304.160 375.333 C 304.072 377.442, 304.398 379.017, 304.884 378.833 C 305.371 378.650, 315.592 369.275, 327.599 358 C 339.605 346.725, 351.695 335.372, 354.464 332.772 C 357.234 330.171, 359.275 328.053, 359 328.064 C 358.725 328.076, 352.799 333.354, 345.831 339.793 M 814 328.296 C 814 328.550, 816.117 330.493, 818.703 332.613 C 821.290 334.733, 823.084 335.945, 822.690 335.307 C 821.849 333.947, 814 327.614, 814 328.296 M 453 335.480 C 453 335.755, 457.050 338.014, 462 340.500 C 466.950 342.986, 471 344.795, 471 344.520 C 471 344.245, 466.950 341.986, 462 339.500 C 457.050 337.014, 453 335.205, 453 335.480 M 824 336.250 C 824 336.485, 828.612 340.682, 834.250 345.578 C 839.888 350.473, 852.557 362.583, 862.404 372.489 C 878.576 388.757, 879.060 389.166, 867.404 376.720 C 853.975 362.379, 824 334.430, 824 336.250 M 292.374 352.500 C 292.376 358.550, 292.541 360.896, 292.740 357.713 C 292.939 354.531, 292.937 349.581, 292.736 346.713 C 292.535 343.846, 292.372 346.450, 292.374 352.500 M 476 347.459 C 476 347.734, 477.816 348.886, 480.035 350.018 C 482.455 351.252, 483.794 352.524, 483.381 353.193 C 482.958 353.876, 483.145 354.028, 483.862 353.585 C 484.506 353.187, 484.770 352.436, 484.448 351.917 C 483.768 350.816, 476 346.717, 476 347.459 M 682.416 351.750 C 680.312 354.363, 677.058 358.525, 675.186 361 C 671.907 365.333, 671.898 365.370, 674.931 362 C 679.204 357.253, 687.239 347, 686.687 347 C 686.442 347, 684.520 349.137, 682.416 351.750 M 540 350.904 C 540 351.351, 544.612 355.463, 550.250 360.042 C 564.066 371.262, 586.823 394.146, 596.948 407 C 605.680 418.086, 609.344 422.207, 604.503 415.500 C 592.990 399.548, 572.807 378.160, 555.812 363.898 C 549.652 358.729, 543.574 353.508, 542.306 352.295 C 541.038 351.083, 540 350.457, 540 350.904 M 868.566 356.750 C 871.167 360.188, 873.484 363, 873.716 363 C 874.335 363, 870.613 358.018, 866.992 354 C 865.257 352.075, 865.966 353.313, 868.566 356.750 M 342.842 363.962 C 335.330 370.524, 328.851 376.432, 328.443 377.092 C 328.035 377.752, 333.506 373.224, 340.601 367.029 C 354.796 354.635, 357.678 351.992, 356.972 352.016 C 356.712 352.024, 350.354 357.400, 342.842 363.962 M 461.750 364.059 C 454.188 367.884, 448 371.239, 448 371.514 C 448 371.788, 454.300 368.857, 462 365 C 469.700 361.143, 476 357.765, 476 357.493 C 476 356.810, 476.935 356.379, 461.750 364.059 M 305.286 364.500 C 305.294 367.250, 305.488 368.256, 305.718 366.736 C 305.947 365.216, 305.941 362.966, 305.704 361.736 C 305.467 360.506, 305.279 361.750, 305.286 364.500 M 694.387 368.703 C 692.267 371.290, 691.055 373.084, 691.693 372.690 C 693.053 371.849, 699.386 364, 698.704 364 C 698.450 364, 696.507 366.117, 694.387 368.703 M 878.501 370.589 C 881.159 374.390, 884.001 378.175, 884.816 379 C 885.631 379.825, 883.915 376.998, 881.002 372.718 C 878.089 368.438, 875.248 364.653, 874.687 364.307 C 874.127 363.960, 875.843 366.787, 878.501 370.589 M 514 370.736 C 514.825 371.055, 520.112 374.404, 525.750 378.180 C 531.388 381.956, 536 384.820, 536 384.545 C 536 383.620, 515.081 369.999, 513.783 370.079 C 512.941 370.131, 513.015 370.357, 514 370.736 M 661.421 378.250 C 658.228 382.238, 654.074 387.413, 652.188 389.750 C 650.302 392.087, 648.988 394, 649.267 394 C 649.546 394, 652.387 390.738, 655.579 386.750 C 658.772 382.762, 662.926 377.587, 664.812 375.250 C 666.698 372.913, 668.012 371, 667.733 371 C 667.454 371, 664.613 374.262, 661.421 378.250 M 481 378 C 480.175 378.533, 479.868 378.976, 480.318 378.985 C 480.768 378.993, 480.111 380.462, 478.857 382.250 C 477.604 384.038, 477.236 384.972, 478.039 384.327 C 479.405 383.230, 483.479 376.982, 482.807 377.015 C 482.638 377.024, 481.825 377.467, 481 378 M 317 387.176 C 308.084 395.705, 307.992 395.833, 315.500 389.245 C 319.900 385.385, 324.357 381.275, 325.405 380.113 C 329.375 375.710, 326.169 378.404, 317 387.176 M 503 385.500 C 501.297 387.975, 500.129 390, 500.404 390 C 500.679 390, 502.297 387.975, 504 385.500 C 505.703 383.025, 506.871 381, 506.596 381 C 506.321 381, 504.703 383.025, 503 385.500 M 660.750 405.217 C 647.688 418.450, 637 429.439, 637 429.638 C 637 429.837, 637.450 430, 638 430 C 638.550 430, 638.888 429.632, 638.750 429.182 C 638.613 428.732, 644.594 422.473, 652.043 415.272 C 663.627 404.074, 685.921 380.838, 684.850 381.079 C 684.657 381.122, 673.813 391.984, 660.750 405.217 M 886.615 382.250 C 887.018 382.938, 889.070 386.063, 891.174 389.195 C 893.278 392.327, 895 395.107, 895 395.372 C 895 395.637, 894.212 396.059, 893.250 396.311 C 891.933 396.655, 892.057 396.797, 893.750 396.884 C 894.987 396.948, 896 396.545, 896 395.988 C 896 394.911, 886.992 381, 886.294 381 C 886.068 381, 886.212 381.563, 886.615 382.250 M 391.189 387.549 C 388.176 393.749, 388.512 394.617, 391.615 388.652 C 393.003 385.986, 393.967 383.633, 393.757 383.424 C 393.548 383.215, 392.392 385.071, 391.189 387.549 M 473 390.500 C 471.297 392.975, 470.129 395, 470.404 395 C 470.679 395, 472.297 392.975, 474 390.500 C 475.703 388.025, 476.871 386, 476.596 386 C 476.321 386, 474.703 388.025, 473 390.500 M 544 390.318 C 544 390.561, 546.587 392.701, 549.750 395.075 C 552.913 397.448, 554.958 398.718, 554.295 397.897 C 552.937 396.214, 544 389.635, 544 390.318 M 447.750 394.563 C 444.038 396.469, 441 398.252, 441 398.526 C 441 398.801, 444.150 397.439, 448 395.500 C 451.850 393.561, 455 391.756, 455 391.487 C 455 390.817, 455.280 390.698, 447.750 394.563 M 367.208 398.532 C 365.454 402.089, 364.233 405, 364.495 405 C 365.165 405, 371.211 392.878, 370.764 392.431 C 370.563 392.229, 368.962 394.975, 367.208 398.532 M 487.037 407.059 C 481.907 413.691, 473.256 424.378, 467.812 430.809 C 462.368 437.239, 460.460 439.800, 463.572 436.500 C 471.926 427.641, 498.022 395, 496.750 395 C 496.538 395, 492.167 400.426, 487.037 407.059 M 642.421 402.250 C 639.228 406.238, 635.074 411.413, 633.188 413.750 C 631.302 416.087, 629.988 418, 630.267 418 C 630.546 418, 633.387 414.738, 636.579 410.750 C 639.772 406.762, 643.926 401.587, 645.812 399.250 C 647.698 396.913, 649.012 395, 648.733 395 C 648.454 395, 645.613 398.262, 642.421 402.250 M 383.448 403.102 C 381.481 407.009, 380.046 410.379, 380.259 410.592 C 380.472 410.805, 381.513 410.276, 382.573 409.416 C 383.633 408.555, 383.938 408.137, 383.250 408.485 C 381.445 409.399, 381.654 408.628, 385.014 401.971 C 386.672 398.687, 387.803 396, 387.527 396 C 387.251 396, 385.416 399.196, 383.448 403.102 M 468.288 397.250 C 463.951 402.917, 461.665 406.299, 462.521 405.782 C 463.703 405.068, 470.343 396, 469.685 396 C 469.443 396, 468.814 396.563, 468.288 397.250 M 565 406.299 C 565 406.540, 569.163 410.251, 574.250 414.547 C 579.337 418.842, 582.653 421.388, 581.618 420.204 C 579.463 417.738, 565 405.637, 565 406.299 M 329.500 410.164 C 331.700 411.999, 337.287 417.047, 341.917 421.382 C 351.006 429.893, 350.758 429.845, 354.108 423.750 C 355.718 420.822, 354.324 421.798, 352.275 425.034 L 350.355 428.068 341.139 419.575 C 336.070 414.904, 330.478 410.125, 328.712 408.955 C 326.367 407.402, 326.580 407.729, 329.500 410.164 M 458.428 410.750 C 456.883 412.813, 454.530 416.075, 453.199 418 L 450.779 421.500 453.388 418.500 C 456.752 414.633, 462.256 407, 461.681 407 C 461.437 407, 459.973 408.688, 458.428 410.750 M 623.406 426.031 C 617.855 432.900, 617.679 433.021, 615.721 431.281 C 613.761 429.539, 613.747 429.549, 615.099 431.750 C 615.859 432.988, 616.794 434, 617.176 434 C 617.559 434, 620.629 430.625, 624 426.500 C 627.371 422.375, 629.894 419, 629.607 419 C 629.321 419, 626.530 422.164, 623.406 426.031 M 610 424.500 C 611.703 426.975, 613.321 429, 613.596 429 C 613.871 429, 612.703 426.975, 611 424.500 C 609.297 422.025, 607.679 420, 607.404 420 C 607.129 420, 608.297 422.025, 610 424.500 M 445.500 428 C 442.961 431.300, 441.108 434, 441.383 434 C 441.658 434, 443.961 431.300, 446.500 428 C 449.039 424.700, 450.892 422, 450.617 422 C 450.342 422, 448.039 424.700, 445.500 428 M 592.468 430.272 C 599.916 437.328, 601.103 438.854, 599.468 439.269 C 597.936 439.657, 597.875 439.794, 599.191 439.884 C 603.050 440.149, 601.502 437.774, 592.745 429.991 L 583.500 421.775 592.468 430.272 M 294.607 424.582 C 293.671 427.020, 293.945 427.700, 295.078 425.754 C 296.037 424.107, 296.320 424.123, 300.048 426.024 C 302.221 427.133, 304 427.816, 304 427.541 C 304 427.059, 296.532 423, 295.647 423 C 295.409 423, 294.941 423.712, 294.607 424.582 M 305.011 428.292 C 305.971 429.350, 321 438.961, 321 438.517 C 321 437.964, 310.377 430.756, 307 429.016 C 305.625 428.308, 304.730 427.983, 305.011 428.292 M 438.831 436.750 C 434.290 442.122, 429.642 448.302, 430.553 447.756 C 431.756 447.036, 441.349 435, 440.721 435 C 440.495 435, 439.644 435.788, 438.831 436.750 M 324.732 441.736 L 327.964 444.615 319.482 450.897 C 314.817 454.352, 311 457.417, 311 457.708 C 311 457.999, 312.462 457.140, 314.250 455.799 C 316.038 454.458, 320.087 451.426, 323.250 449.060 C 326.413 446.695, 329 444.642, 329 444.499 C 329 444.355, 327.313 443.026, 325.250 441.547 L 321.500 438.856 324.732 441.736 M 441.368 459.750 C 432.526 468.962, 418.515 482.800, 410.232 490.500 C 401.949 498.200, 395.420 504.725, 395.723 505 C 396.026 505.275, 396.466 504.963, 396.702 504.306 C 396.937 503.650, 397.663 503.238, 398.315 503.392 C 398.967 503.546, 399.232 503.507, 398.905 503.304 C 398.577 503.102, 402.177 499.251, 406.905 494.748 C 430.380 472.382, 459.297 443, 457.833 443 C 457.619 443, 450.210 450.538, 441.368 459.750 M 423.404 456.250 C 420.203 460.238, 418.286 462.937, 419.144 462.250 C 420.976 460.783, 430.344 449, 429.679 449 C 429.429 449, 426.606 452.262, 423.404 456.250 M 264.214 461.541 C 261.353 467.293, 259.230 472, 259.497 472 C 260.161 472, 270.212 451.879, 269.769 451.436 C 269.575 451.241, 267.074 455.788, 264.214 461.541 M 343.490 464.156 L 341.500 466.500 343.679 464.659 C 345.849 462.826, 345.876 462.844, 349.571 468.409 C 351.613 471.484, 353.470 474, 353.698 474 C 354.378 474, 350.691 468.078, 347.990 464.830 L 345.480 461.812 343.490 464.156 M 332.599 477.250 C 327.794 482.887, 326.030 485.225, 328.681 482.445 C 334.255 476.599, 342.384 467, 341.762 467 C 341.528 467, 337.405 471.613, 332.599 477.250 M 304.246 479.509 C 294.760 485.838, 287 491.246, 287 491.525 C 287 491.804, 293.791 487.490, 302.090 481.940 C 310.390 476.389, 317.385 472.051, 317.634 472.301 C 319.032 473.699, 284.420 509.351, 266.200 525.279 C 251.655 537.993, 248.323 541.170, 256 535.002 C 268.346 525.083, 290.543 504.041, 303.162 490.294 C 317.578 474.590, 323.071 468, 321.746 468 C 321.606 468, 313.731 473.179, 304.246 479.509 M 409 474 C 406.698 476.750, 405.039 479, 405.314 479 C 405.589 479, 407.698 476.750, 410 474 C 412.302 471.250, 413.961 469, 413.686 469 C 413.411 469, 411.302 471.250, 409 474 M 282.500 478.596 C 278.650 481.627, 274.825 484.823, 274 485.699 C 273.175 486.574, 276.248 484.425, 280.829 480.923 C 288.087 475.373, 290.916 472.891, 289.809 473.042 C 289.639 473.066, 286.350 475.565, 282.500 478.596 M 356.705 480.472 C 358.182 483.482, 359.557 485.776, 359.762 485.571 C 360.211 485.122, 355.167 475, 354.494 475 C 354.234 475, 355.229 477.462, 356.705 480.472 M 396.891 488.750 C 392.863 493.563, 390.291 496.922, 391.177 496.216 C 393.123 494.664, 405.331 480, 404.677 480 C 404.423 480, 400.919 483.938, 396.891 488.750 M 268 490 C 264.306 493.110, 262.450 493.836, 263.528 491.750 C 263.883 491.063, 263.245 491.625, 262.109 493 C 258.464 497.414, 259.845 497.237, 266 492.500 C 271.127 488.555, 272.857 486.908, 271.750 487.027 C 271.613 487.042, 269.925 488.380, 268 490 M 305.490 506.250 L 287.500 524.500 305.750 506.510 C 322.706 489.797, 324.452 488, 323.740 488 C 323.596 488, 315.384 496.212, 305.490 506.250 M 276.124 498.484 C 272.617 500.886, 269.242 503.396, 268.624 504.062 C 268.006 504.728, 270.988 502.948, 275.250 500.106 C 279.512 497.264, 283 494.728, 283 494.470 C 283 493.773, 283.010 493.767, 276.124 498.484 M 239.592 503.750 C 237.562 506.913, 236.947 508.269, 238.226 506.765 C 240.750 503.796, 244.368 498, 243.698 498 C 243.470 498, 241.622 500.587, 239.592 503.750 M 383.372 504.704 C 380.142 508.391, 378.016 511.093, 378.647 510.709 C 380.060 509.847, 390.383 498, 389.721 498 C 389.459 498, 386.602 501.017, 383.372 504.704 M 255.250 513.099 C 252.912 514.755, 251 516.332, 251 516.603 C 251 516.874, 253.025 515.703, 255.500 514 C 257.975 512.297, 260 510.701, 260 510.452 C 260 509.764, 259.810 509.869, 255.250 513.099 M 441 513.471 C 441 513.746, 448.313 518.845, 457.250 524.802 C 474.425 536.249, 477.164 537.971, 475.500 536.273 C 473.938 534.679, 441 512.909, 441 513.471 M 224.564 524.750 C 221.440 529.013, 220.206 531.008, 221.820 529.184 C 225.321 525.229, 231.308 517, 230.683 517 C 230.441 517, 227.687 520.487, 224.564 524.750 M 245.492 520.250 C 241.369 523.632, 237.163 528.119, 233.751 532.777 C 232.654 534.275, 234.078 532.936, 236.915 529.802 C 239.753 526.668, 243.970 522.514, 246.287 520.572 C 248.604 518.629, 250.265 517.030, 249.978 517.020 C 249.691 517.009, 247.672 518.462, 245.492 520.250 M 419.415 519.362 C 419.127 520.111, 419.056 523.374, 419.257 526.612 L 419.622 532.500 419.811 525.833 C 419.931 521.590, 420.454 518.983, 421.250 518.662 C 422.229 518.267, 422.222 518.141, 421.219 518.079 C 420.514 518.036, 419.702 518.613, 419.415 519.362 M 281.983 528.273 C 279.499 530.598, 274.549 535.126, 270.983 538.335 C 266.988 541.930, 267.954 541.291, 273.500 536.670 C 281.812 529.742, 287.942 523.968, 286.924 524.023 C 286.691 524.036, 284.467 525.948, 281.983 528.273 M 447.500 532.726 C 448.050 533.251, 450.300 534.691, 452.500 535.926 C 454.700 537.161, 455.600 537.424, 454.500 536.510 C 452.266 534.653, 445.931 531.228, 447.500 532.726 M 222.374 546.750 C 219.695 549.913, 213.034 557.450, 207.570 563.500 C 202.106 569.550, 196.705 575.574, 195.568 576.886 L 193.500 579.271 195.750 578.101 C 196.988 577.457, 198 576.570, 198 576.131 C 198 575.693, 198.569 575.333, 199.264 575.333 C 200.577 575.333, 212 568.077, 212 567.243 C 212 566.777, 209.824 568.089, 203.057 572.634 C 201.163 573.906, 199.427 574.761, 199.199 574.533 C 198.971 574.305, 203.446 569.008, 209.142 562.762 C 220.532 550.273, 228.446 541, 227.715 541 C 227.455 541, 225.052 543.587, 222.374 546.750 M 527.300 546 C 527.300 549.025, 527.487 550.263, 527.716 548.750 C 527.945 547.237, 527.945 544.763, 527.716 543.250 C 527.487 541.737, 527.300 542.975, 527.300 546 M 551.286 546.500 C 551.294 549.250, 551.488 550.256, 551.718 548.736 C 551.947 547.216, 551.941 544.966, 551.704 543.736 C 551.467 542.506, 551.279 543.750, 551.286 546.500 M 418.286 549.500 C 418.294 552.250, 418.488 553.256, 418.718 551.736 C 418.947 550.216, 418.941 547.966, 418.704 546.736 C 418.467 545.506, 418.279 546.750, 418.286 549.500 M 198.909 556.250 C 195.398 560.237, 193.319 562.873, 194.288 562.106 C 196.393 560.442, 206.395 549, 205.745 549 C 205.495 549, 202.419 552.263, 198.909 556.250 M 246.460 557.809 C 240.388 562.589, 233.863 567.780, 231.960 569.345 L 228.500 572.189 232.500 569.419 C 241.981 562.853, 259.541 548.727, 257.809 549.059 C 257.639 549.092, 252.532 553.029, 246.460 557.809 M 399.300 560 C 399.300 563.025, 399.487 564.263, 399.716 562.750 C 399.945 561.237, 399.945 558.763, 399.716 557.250 C 399.487 555.737, 399.300 556.975, 399.300 560 M 220.250 561.099 C 217.912 562.755, 216 564.332, 216 564.603 C 216 564.874, 218.025 563.703, 220.500 562 C 222.975 560.297, 225 558.701, 225 558.452 C 225 557.764, 224.810 557.869, 220.250 561.099 M 528.175 562.750 C 528.079 565.087, 527.753 567, 527.450 567 C 527.148 567, 525.523 566.288, 523.840 565.417 C 522.157 564.547, 521.045 564.263, 521.368 564.787 C 522.152 566.056, 527.921 568.412, 528.595 567.739 C 528.886 567.447, 528.951 565.249, 528.737 562.854 L 528.349 558.500 528.175 562.750 M 500 562.497 C 500 563.160, 522.121 574.212, 522.563 573.770 C 522.757 573.576, 517.760 570.851, 511.458 567.714 C 505.156 564.577, 500 562.230, 500 562.497 M 552.422 582 C 552.422 593.275, 552.568 597.888, 552.746 592.250 C 552.924 586.612, 552.924 577.388, 552.746 571.750 C 552.568 566.112, 552.422 570.725, 552.422 582 M 245 566 C 241.975 567.598, 239.950 568.906, 240.500 568.906 C 241.050 568.906, 243.975 567.598, 247 566 C 250.025 564.402, 252.050 563.094, 251.500 563.094 C 250.950 563.094, 248.025 564.402, 245 566 M 164.062 593.316 C 141.967 615.990, 140.030 618.150, 155.379 603 C 172.667 585.935, 193.904 563.875, 192.860 564.066 C 192.662 564.102, 179.703 577.264, 164.062 593.316 M 325 571.373 C 325 572.453, 328.972 580, 329.541 580 C 329.816 580, 329.076 578.087, 327.897 575.750 C 325.579 571.153, 325 570.278, 325 571.373 M 268 578.500 C 265.098 580.159, 266.140 580.531, 269.160 578.914 C 270.991 577.935, 271.119 578.057, 270.470 580.164 C 269.642 582.856, 270.214 582.490, 271.900 579.250 C 273.308 576.543, 271.898 576.272, 268 578.500 M 526.405 588.250 L 524.500 590.500 526.670 588.668 C 528.796 586.872, 528.848 586.882, 529.283 589.168 C 529.684 591.269, 529.741 591.228, 529.864 588.750 C 530.029 585.412, 528.941 585.255, 526.405 588.250 M 514 597.105 C 506.150 602.837, 505.327 604.124, 512.804 598.976 C 518.164 595.284, 521.015 592.871, 519.809 593.044 C 519.639 593.069, 517.025 594.896, 514 597.105 M 319.310 596.500 C 320.155 598.150, 321.596 600.400, 322.510 601.500 C 323.424 602.600, 323.161 601.700, 321.926 599.500 C 319.201 594.646, 317.159 592.306, 319.310 596.500 M 495.741 596.374 C 490.937 599.327, 489.596 600.722, 493.500 598.703 C 496.635 597.083, 500.863 594.064, 500 594.063 C 499.725 594.063, 497.808 595.103, 495.741 596.374 M 226 597.500 C 223.525 598.825, 221.950 599.910, 222.500 599.910 C 223.050 599.910, 225.525 598.825, 228 597.500 C 230.475 596.175, 232.050 595.090, 231.500 595.090 C 230.950 595.090, 228.475 596.175, 226 597.500 M 342.550 600.750 C 349.919 610.666, 356.947 618.537, 368.666 630 L 381.444 642.500 366.899 627.500 C 358.900 619.250, 349.745 609.013, 346.556 604.750 C 343.367 600.487, 340.534 597, 340.260 597 C 339.987 597, 341.017 598.688, 342.550 600.750 M 203 608.500 C 197.225 611.469, 192.950 613.897, 193.500 613.897 C 194.050 613.897, 199.225 611.469, 205 608.500 C 210.775 605.531, 215.050 603.103, 214.500 603.103 C 213.950 603.103, 208.775 605.531, 203 608.500 M 329.140 611.545 C 330.935 614.045, 333.076 616.632, 333.897 617.295 C 334.718 617.958, 333.448 615.913, 331.075 612.750 C 325.968 605.945, 324.431 604.988, 329.140 611.545 M 470.750 610.566 C 468.137 611.926, 466 613.262, 466 613.536 C 466 613.810, 468.250 612.894, 471 611.500 C 473.750 610.106, 476 608.749, 476 608.483 C 476 607.822, 476.090 607.786, 470.750 610.566 M 252 617 C 250.334 620.300, 249.196 623, 249.471 623 C 249.746 623, 251.334 620.300, 253 617 C 254.666 613.700, 255.804 611, 255.529 611 C 255.254 611, 253.666 613.700, 252 617 M 489.482 613.640 C 484.379 617.023, 482.581 618.808, 486.566 616.535 C 490.074 614.534, 494.754 611.055, 493.982 611.022 C 493.697 611.010, 491.672 612.188, 489.482 613.640 M 528.336 618 C 528.336 622.125, 528.513 623.813, 528.728 621.750 C 528.944 619.688, 528.944 616.313, 528.728 614.250 C 528.513 612.188, 528.336 613.875, 528.336 618 M 477.500 621.132 C 474.750 622.834, 472.050 624.690, 471.500 625.256 C 470.393 626.395, 477.284 622.475, 481.085 619.802 C 485.078 616.996, 482.847 617.823, 477.500 621.132 M 551.320 627 C 551.320 630.575, 551.502 632.038, 551.723 630.250 C 551.945 628.462, 551.945 625.538, 551.723 623.750 C 551.502 621.962, 551.320 623.425, 551.320 627 M 123.479 632.306 C 117.417 637.913, 109.092 645.577, 104.979 649.338 C 100.734 653.219, 102.063 652.269, 108.051 647.142 C 118.975 637.790, 135.877 622.084, 135 622.102 C 134.725 622.108, 129.540 626.700, 123.479 632.306 M 346.652 632.254 C 350.399 636.519, 356.622 642.741, 360.482 646.082 L 367.500 652.157 360.783 645.795 C 357.089 642.296, 350.866 636.074, 346.954 631.967 L 339.841 624.500 346.652 632.254 M 464.250 629.105 C 461.363 630.788, 459 632.396, 459 632.678 C 459 633.233, 467.893 628.288, 469.450 626.867 C 471.145 625.320, 469.605 625.983, 464.250 629.105 M 433 629.500 C 430.525 630.825, 428.950 631.910, 429.500 631.910 C 430.050 631.910, 432.525 630.825, 435 629.500 C 437.475 628.175, 439.050 627.090, 438.500 627.090 C 437.950 627.090, 435.475 628.175, 433 629.500 M 262.217 646.547 C 257.152 656.696, 253.228 665, 253.498 665 C 254.158 665, 272.213 628.879, 271.773 628.440 C 271.583 628.250, 267.283 636.398, 262.217 646.547 M 527.286 636.500 C 527.294 639.250, 527.488 640.256, 527.718 638.736 C 527.947 637.216, 527.941 634.966, 527.704 633.736 C 527.467 632.506, 527.279 633.750, 527.286 636.500 M 184.389 649.500 C 184.390 656.650, 184.550 659.444, 184.742 655.708 C 184.935 651.973, 184.934 646.123, 184.739 642.708 C 184.545 639.294, 184.387 642.350, 184.389 649.500 M 140.750 640.566 C 138.137 641.926, 136 643.262, 136 643.536 C 136 643.810, 138.250 642.894, 141 641.500 C 143.750 640.106, 146 638.749, 146 638.483 C 146 637.822, 146.090 637.786, 140.750 640.566 M 423.750 651.566 C 421.137 652.926, 419 654.262, 419 654.536 C 419 654.810, 421.250 653.894, 424 652.500 C 426.750 651.106, 429 649.749, 429 649.483 C 429 648.822, 429.090 648.786, 423.750 651.566 M 89.500 662.180 C 85.650 665.514, 77.775 672.337, 72 677.342 C 57.954 689.515, 47.084 700.015, 39.745 708.500 C 36.184 712.617, 37.670 711.311, 43.353 705.330 C 52.822 695.364, 68.362 681.159, 86.714 665.691 C 94.685 658.973, 97.970 655.838, 96.809 656.059 C 96.639 656.091, 93.350 658.846, 89.500 662.180 M 408.005 659.976 C 406.380 661.003, 407.271 661.938, 413.250 665.483 C 417.321 667.896, 416.591 666.528, 412.439 663.962 C 410.272 662.623, 409.085 661.221, 409.407 660.381 C 410.030 658.757, 409.963 658.738, 408.005 659.976 M 95.795 667.750 C 85.117 675.791, 69.717 690.548, 62.109 700.028 C 59.269 703.567, 60.123 702.850, 64.525 698 C 75.348 686.076, 85.727 676.436, 96.500 668.302 C 107.971 659.641, 107.530 660, 106.709 660 C 106.366 660, 101.455 663.487, 95.795 667.750 M 410 680.496 C 410 681.164, 424.122 688.212, 424.567 687.766 C 424.767 687.567, 421.570 685.742, 417.465 683.710 C 413.359 681.679, 410 680.232, 410 680.496 M 439 680.466 C 439 680.741, 441.250 682.106, 444 683.500 C 446.750 684.894, 449 685.809, 449 685.534 C 449 685.259, 446.750 683.894, 444 682.500 C 441.250 681.106, 439 680.191, 439 680.466 M 287.188 686.683 C 284.816 687.522, 283.052 688.385, 283.268 688.601 C 283.724 689.058, 293 686.012, 293 685.406 C 293 684.780, 291.862 685.030, 287.188 686.683 M 232.082 701.368 C 229.548 705.467, 229.508 706.022, 231.750 705.921 C 232.836 705.872, 233.016 705.648, 232.225 705.329 C 231.270 704.945, 231.478 703.962, 233.057 701.408 C 234.215 699.534, 234.938 698, 234.663 698 C 234.388 698, 233.226 699.516, 232.082 701.368 M 201.996 702.506 C 200.803 704.437, 199.349 705.716, 198.760 705.352 C 198.113 704.952, 197.984 705.166, 198.435 705.894 C 199.368 707.404, 200.870 706.226, 203.307 702.077 C 205.808 697.816, 204.663 698.192, 201.996 702.506 M 349.695 721.550 C 346.023 729.036, 346.362 729.923, 350.115 722.650 C 351.775 719.432, 352.966 716.633, 352.761 716.428 C 352.557 716.223, 351.177 718.528, 349.695 721.550 M 506 725.500 C 501.325 727.920, 497.847 729.922, 498.272 729.950 C 499.335 730.019, 515 722.096, 515 721.489 C 515 720.811, 515.424 720.622, 506 725.500 M 38.450 735.099 C 37.028 737.904, 36.033 740.367, 36.238 740.571 C 36.443 740.776, 37.818 738.482, 39.295 735.472 C 40.771 732.462, 41.766 730, 41.506 730 C 41.246 730, 39.871 732.295, 38.450 735.099 M 215 731.627 C 215 734.355, 240.246 760.411, 252.050 769.866 C 255.047 772.267, 255.925 772.778, 254 771.002 C 252.075 769.226, 246.116 763.746, 240.758 758.825 C 230.698 749.583, 216.310 733.437, 216.750 731.882 C 216.887 731.397, 216.550 731, 216 731 C 215.450 731, 215 731.282, 215 731.627 M 495.750 740.064 C 492.587 741.696, 490 743.256, 490 743.530 C 490 743.805, 492.700 742.666, 496 741 C 499.300 739.334, 502 737.753, 502 737.486 C 502 736.819, 502.185 736.742, 495.750 740.064 M 171.777 748.640 C 169.179 752.688, 167.263 756, 167.519 756 C 168.236 756, 177.364 742.023, 176.905 741.628 C 176.682 741.436, 174.375 744.591, 171.777 748.640 M 335 751 C 332.788 755.400, 331.203 759, 331.478 759 C 331.753 759, 333.788 755.400, 336 751 C 338.212 746.600, 339.797 743, 339.522 743 C 339.247 743, 337.212 746.600, 335 751 M 9.949 751.101 C 8.255 754.457, 7.034 757.367, 7.236 757.569 C 7.437 757.771, 9.038 755.025, 10.792 751.468 C 12.546 747.911, 13.767 745, 13.505 745 C 13.243 745, 11.643 747.746, 9.949 751.101 M 352.217 766.547 C 347.152 776.696, 343.228 785, 343.498 785 C 344.158 785, 362.213 748.879, 361.773 748.440 C 361.583 748.250, 357.283 756.398, 352.217 766.547 M 183.381 764.250 C 176.395 772.638, 169.772 780.513, 168.665 781.750 C 167.557 782.987, 166.917 784, 167.242 784 C 167.567 784, 174.268 776.278, 182.133 766.840 L 196.433 749.680 206.860 760.590 C 212.594 766.591, 216.668 770.653, 215.911 769.618 C 215.155 768.583, 213.178 766.324, 211.518 764.597 C 209.858 762.871, 205.881 758.655, 202.679 755.229 C 199.478 751.803, 196.684 749, 196.471 749 C 196.258 749, 190.368 755.862, 183.381 764.250 M 163 761.500 C 161.297 763.975, 160.129 766, 160.404 766 C 160.679 766, 162.297 763.975, 164 761.500 C 165.703 759.025, 166.871 757, 166.596 757 C 166.321 757, 164.703 759.025, 163 761.500 M 445 765.500 C 441.425 767.372, 438.950 768.903, 439.500 768.903 C 440.050 768.903, 443.425 767.372, 447 765.500 C 450.575 763.628, 453.050 762.097, 452.500 762.097 C 451.950 762.097, 448.575 763.628, 445 765.500 M 156 771.500 C 154.297 773.975, 153.129 776, 153.404 776 C 153.679 776, 155.297 773.975, 157 771.500 C 158.703 769.025, 159.871 767, 159.596 767 C 159.321 767, 157.703 769.025, 156 771.500 M 224.410 777.455 C 228.210 781.101, 233.160 785.462, 235.410 787.146 C 240.135 790.683, 238.743 789.371, 225.500 777.809 L 217.500 770.824 224.410 777.455 M 424 775.500 C 421.525 776.825, 419.950 777.910, 420.500 777.910 C 421.050 777.910, 423.525 776.825, 426 775.500 C 428.475 774.175, 430.050 773.090, 429.500 773.090 C 428.950 773.090, 426.475 774.175, 424 775.500 M 267.447 781.914 C 268.199 783.131, 277 789.329, 277 788.642 C 277 788.392, 274.703 786.537, 271.896 784.521 C 269.088 782.504, 267.086 781.331, 267.447 781.914 M 161.408 790.750 C 158.749 793.913, 154.594 798.975, 152.175 802 C 148.744 806.291, 148.587 806.621, 151.461 803.500 C 156.582 797.939, 167.234 785, 166.691 785 C 166.444 785, 164.067 787.587, 161.408 790.750 M 280.235 791.226 C 283.204 793.750, 289 797.368, 289 796.698 C 289 796.470, 286.413 794.622, 283.250 792.592 C 280.087 790.562, 278.731 789.947, 280.235 791.226 M 244 793.427 C 244 793.947, 254.749 801.655, 259.500 804.543 C 264.666 807.683, 260.853 804.583, 252.250 798.647 C 247.713 795.516, 244 793.167, 244 793.427 M 129.936 808.250 C 125.947 813.888, 122.250 819.063, 121.719 819.750 C 121.189 820.438, 120.993 821, 121.283 821 C 121.574 821, 125.075 816.388, 129.064 810.750 C 133.053 805.112, 136.750 799.938, 137.281 799.250 C 137.811 798.563, 138.007 798, 137.717 798 C 137.426 798, 133.925 802.612, 129.936 808.250 M 294.915 800.674 C 300.789 805.116, 304.850 807.053, 305.592 805.766 C 305.993 805.070, 305.954 804.832, 305.507 805.237 C 305.059 805.642, 303.075 804.994, 301.097 803.798 C 299.118 802.601, 296.375 800.997, 295 800.235 L 292.500 798.848 294.915 800.674 M 134.877 823.250 C 128.172 831.638, 122.012 839.288, 121.188 840.250 C 120.364 841.212, 119.938 842, 120.240 842 C 120.542 842, 126.920 834.350, 134.413 825 C 141.905 815.650, 147.818 808, 147.551 808 C 147.285 808, 141.581 814.862, 134.877 823.250 M 274.916 813.796 L 277.333 815.760 275.091 816.471 C 273.858 816.862, 273.068 817.402, 273.336 817.670 C 273.604 817.937, 274.991 817.545, 276.417 816.797 L 279.012 815.438 275.756 813.636 L 272.500 811.833 274.916 813.796 M 48.965 827.449 C 50.648 829.896, 52.503 832.193, 53.086 832.553 C 53.669 832.914, 52.496 830.912, 50.479 828.104 C 45.976 821.835, 44.733 821.297, 48.965 827.449 M 11.960 833.630 C 13.210 835.901, 15.320 839.051, 16.647 840.630 C 17.975 842.208, 17.238 840.603, 15.010 837.062 C 10.230 829.468, 8.757 827.811, 11.960 833.630 M 58.493 839.440 C 66.033 848.266, 87.108 868.009, 88.913 867.937 C 89.884 867.898, 89.581 867.505, 88.133 866.925 C 86.831 866.404, 78.506 858.691, 69.633 849.786 C 60.760 840.881, 55.747 836.225, 58.493 839.440 M 106 842 C 103.759 845.300, 102.150 848, 102.425 848 C 102.700 848, 104.759 845.300, 107 842 C 109.241 838.700, 110.850 836, 110.575 836 C 110.300 836, 108.241 838.700, 106 842 M 303.647 850 C 299.985 855.500, 297.205 860, 297.469 860 C 297.733 860, 300.580 856.063, 303.795 851.250 C 310.611 841.051, 311.257 840, 310.712 840 C 310.488 840, 307.309 844.500, 303.647 850 M 22.114 848 C 26.389 853.758, 41.868 869.234, 49 874.880 C 53.897 878.757, 53.787 878.596, 48 873.414 C 39.651 865.936, 29.693 855.979, 23.586 849 C 19.585 844.428, 19.336 844.259, 22.114 848 M 351 846.500 C 352.925 847.241, 355.175 847.848, 356 847.848 C 356.825 847.848, 355.925 847.241, 354 846.500 C 352.075 845.759, 349.825 845.152, 349 845.152 C 348.175 845.152, 349.075 845.759, 351 846.500 M 112.899 851.250 C 107.857 857.804, 107.722 858, 108.257 858 C 108.534 858, 110.628 855.525, 112.912 852.500 C 115.196 849.475, 116.863 847, 116.616 847 C 116.370 847, 114.697 848.913, 112.899 851.250 M 481.091 852.091 C 480.415 854.348, 480.045 856.379, 480.270 856.604 C 480.495 856.829, 481.233 855.166, 481.909 852.909 C 482.585 850.652, 482.955 848.621, 482.730 848.396 C 482.505 848.171, 481.767 849.834, 481.091 852.091 M 274.615 855.500 C 273.727 856.875, 272.272 859.237, 271.381 860.750 L 269.763 863.500 271.774 861.066 C 274.151 858.191, 277.302 853, 276.672 853 C 276.429 853, 275.503 854.125, 274.615 855.500 M 293 865.500 C 291.297 867.975, 290.129 870, 290.404 870 C 290.679 870, 292.297 867.975, 294 865.500 C 295.703 863.025, 296.871 861, 296.596 861 C 296.321 861, 294.703 863.025, 293 865.500 M 471 878 C 469.881 878.723, 469.837 878.973, 470.829 878.985 C 471.804 878.996, 471.973 879.867, 471.463 882.250 C 471.080 884.038, 471.086 885.196, 471.476 884.824 C 472.074 884.254, 473.193 876.970, 472.675 877.015 C 472.579 877.024, 471.825 877.467, 471 878 M 283.288 879.250 C 278.951 884.917, 276.665 888.299, 277.521 887.782 C 278.703 887.068, 285.343 878, 284.685 878 C 284.443 878, 283.814 878.563, 283.288 879.250 M 111.568 883.891 C 111.265 884.380, 112.026 885.432, 113.259 886.227 C 114.491 887.022, 116.737 888.473, 118.250 889.451 C 119.763 890.430, 121 890.995, 121 890.707 C 121 890.419, 118.998 888.917, 116.551 887.369 C 113.613 885.510, 112.509 884.296, 113.301 883.793 C 114.222 883.207, 114.224 883.027, 113.309 883.015 C 112.654 883.007, 111.870 883.401, 111.568 883.891 M 250.615 893.500 C 249.727 894.875, 248.272 897.237, 247.381 898.750 L 245.763 901.500 247.774 899.066 C 250.151 896.191, 253.302 891, 252.672 891 C 252.429 891, 251.503 892.125, 250.615 893.500 M 268.500 899 C 265.961 902.300, 264.108 905, 264.383 905 C 264.658 905, 266.961 902.300, 269.500 899 C 272.039 895.700, 273.892 893, 273.617 893 C 273.342 893, 271.039 895.700, 268.500 899 M 134 898.497 C 134 899.161, 154.121 909.212, 154.564 908.769 C 154.759 908.575, 150.212 906.074, 144.459 903.214 C 138.707 900.353, 134 898.230, 134 898.497 M 96 906.497 C 96 907.160, 118.121 918.212, 118.563 917.770 C 118.757 917.576, 113.760 914.851, 107.458 911.714 C 101.156 908.577, 96 906.230, 96 906.497 M 257.404 913.250 C 254.203 917.237, 252.286 919.937, 253.144 919.250 C 254.976 917.783, 264.344 906, 263.679 906 C 263.429 906, 260.606 909.263, 257.404 913.250 M 246.438 926.750 C 243.795 929.913, 240.970 933.288, 240.161 934.250 C 239.352 935.212, 238.924 936, 239.210 936 C 239.497 936, 242.523 932.625, 245.935 928.500 C 249.347 924.375, 251.937 921, 251.691 921 C 251.444 921, 249.081 923.587, 246.438 926.750 M 471.199 927.551 C 469.439 931.119, 468.022 934.367, 468.049 934.769 C 468.076 935.171, 469.680 932.417, 471.614 928.648 C 473.548 924.880, 474.965 921.632, 474.764 921.430 C 474.562 921.229, 472.958 923.983, 471.199 927.551 M 459.710 951.535 C 457.679 955.641, 456.232 959, 456.496 959 C 457.164 959, 464.212 944.878, 463.766 944.433 C 463.567 944.233, 461.742 947.430, 459.710 951.535 M 408.250 979.716 C 409.762 979.945, 412.238 979.945, 413.750 979.716 C 415.262 979.487, 414.025 979.300, 411 979.300 C 407.975 979.300, 406.738 979.487, 408.250 979.716" stroke="none" fill="#cbcbcb" fill-rule="evenodd"/><path d="M 348.500 4.390 C 341.350 6.804, 323.873 13.134, 309.663 18.458 C 225.993 49.802, 170.651 78.504, 153.481 99.458 C 148.952 104.985, 148.437 110.106, 151.766 116.500 C 152.998 118.867, 171.056 137.648, 195.995 162.500 C 219.176 185.600, 241.426 208.557, 245.440 213.516 C 274.529 249.450, 288.861 287.100, 292.127 336.170 C 295.049 380.075, 286.384 419.313, 264.008 463.500 C 233.969 522.821, 177.100 588.365, 94 659.445 C 56.037 691.916, 44.260 703.153, 31.942 718.654 C 18.213 735.930, 6.713 756.881, 2.935 771.500 C -1.121 787.193, 0.414 806.029, 7.063 822.153 C 21.979 858.324, 72.946 899.122, 134 923.761 C 162.057 935.084, 203.110 947.849, 232.500 954.388 C 289.802 967.138, 390.453 980, 432.925 980 C 441.913 980, 443.949 979.711, 445.259 978.250 C 449.630 973.375, 475.317 920.374, 490.175 885.573 C 517.874 820.694, 534.065 766.367, 542.435 710.215 C 549.717 661.369, 552.439 621.356, 551.701 574 C 551.156 538.975, 549.977 522.365, 546.309 498 C 543.817 481.452, 543.907 478.830, 547 477.945 C 548.375 477.552, 562.325 473.534, 578 469.017 C 681.592 439.167, 792.716 412.908, 869.939 400.031 C 883.380 397.789, 894.556 395.778, 894.773 395.561 C 894.990 395.344, 891.468 389.616, 886.947 382.833 C 846.884 322.728, 803.037 284.691, 735.500 251.454 C 668.456 218.460, 590.678 196.111, 476.444 177.018 C 456.792 173.734, 440.614 170.923, 440.492 170.773 C 440.371 170.623, 436.678 163.975, 432.285 156 C 402.830 102.521, 382.655 58.198, 371.518 22.500 C 364.965 1.493, 364.600 0.543, 362.961 0.256 C 362.157 0.115, 355.650 1.975, 348.500 4.390 M 354.500 9.718 C 340.570 15.344, 305.314 30.101, 293.500 35.251 C 280.116 41.085, 243.384 59.353, 234.081 64.800 C 229.832 67.289, 229.755 67.416, 232.081 68.140 C 233.412 68.553, 244.175 70.284, 256 71.985 C 298.043 78.034, 371.703 91.030, 378.307 93.564 C 381.307 94.715, 380.975 91.799, 376.571 78.291 C 370.412 59.405, 366.438 43.101, 363.947 26.500 C 361.184 8.095, 361.161 7.992, 359.731 8.052 C 359.054 8.080, 356.700 8.830, 354.500 9.718 M 231.127 86.750 C 237.917 93.213, 254.886 109.525, 268.837 123 L 294.203 147.500 301.567 148.758 L 308.931 150.016 321.216 142.648 C 337.935 132.620, 358.040 121.489, 372.671 114.160 C 379.366 110.807, 385.102 107.645, 385.418 107.133 C 385.740 106.612, 382.804 105.910, 378.747 105.538 C 336.815 101.693, 268.853 89.139, 231.797 78.394 C 225.361 76.527, 219.800 75, 219.439 75 C 219.079 75, 224.338 80.287, 231.127 86.750 M 204.950 83.648 C 189.854 94.527, 176 111.518, 176 119.153 C 176 121.732, 176.540 122.084, 184.250 124.523 C 197.759 128.795, 218.284 133.683, 238.500 137.442 C 263.134 142.021, 262.125 141.872, 261.790 140.895 C 261.357 139.635, 212.589 79.130, 211.950 79.060 C 211.648 79.027, 208.498 81.092, 204.950 83.648 M 381 121.158 C 369.910 130.447, 353.949 141.736, 342.830 148.153 C 337.944 150.972, 334.207 153.540, 334.525 153.859 C 335.133 154.466, 417.263 167.847, 417.822 167.430 C 417.999 167.297, 416.919 165.248, 415.421 162.875 C 413.923 160.502, 407.554 148.535, 401.267 136.281 C 394.980 124.026, 389.760 114.009, 389.668 114.019 C 389.576 114.029, 385.675 117.242, 381 121.158 M 190.083 140.380 C 190.313 140.589, 194.550 144.046, 199.500 148.061 C 228.187 171.331, 253.665 199.835, 269.510 226.387 C 272.683 231.704, 275.466 235.867, 275.695 235.638 C 276.544 234.789, 269.350 209.690, 258.372 175.198 C 253.953 161.315, 252.434 157.709, 250.683 156.952 C 249.482 156.432, 241.525 154.183, 233 151.954 C 224.475 149.724, 211.568 146.122, 204.318 143.950 C 191.724 140.176, 189.154 139.532, 190.083 140.380 M 267.957 173.250 C 275.193 189.767, 284.728 215.870, 289.052 231 C 290.860 237.325, 292.691 242.906, 293.121 243.402 C 293.551 243.898, 298.741 239.685, 304.653 234.040 C 321.222 218.220, 342.531 202.918, 368.946 187.868 C 373.964 185.009, 377.717 182.340, 377.285 181.937 C 376.853 181.533, 368.400 179.776, 358.500 178.031 C 348.600 176.286, 323.684 171.516, 303.130 167.429 C 282.577 163.343, 264.949 160, 263.956 160 C 262.418 160, 263.009 161.957, 267.957 173.250 M 377.500 193.146 C 352.296 212.306, 336.005 225.939, 322.250 239.381 C 314.413 247.040, 308 253.651, 308 254.072 C 308 255.102, 315.442 257.457, 348.500 266.888 C 363.900 271.282, 382.110 276.682, 388.966 278.889 C 395.822 281.096, 401.672 282.662, 401.966 282.369 C 403.345 280.996, 403.071 245.333, 401.583 232.436 C 399.348 213.069, 392.896 185.115, 390.483 184.339 C 389.942 184.165, 384.100 188.128, 377.500 193.146 M 401.300 187.250 C 412.397 214.215, 417.119 235.836, 418.556 266.250 C 418.913 273.813, 419.361 280, 419.552 280 C 419.743 280, 427.010 275.328, 435.700 269.617 C 444.390 263.907, 457.575 255.746, 465 251.483 C 478.501 243.730, 515.187 225.187, 532.901 217.161 C 538.223 214.749, 541.910 212.532, 541.401 212.051 C 539.617 210.368, 482.741 199.124, 435 191.017 C 403.186 185.614, 400.504 185.315, 401.300 187.250 M 541 225.653 C 507.649 244.209, 439.379 287.223, 435.103 292.376 C 433.601 294.185, 432.389 293.527, 457.500 304.547 C 473.765 311.685, 485.344 317.464, 499.797 325.657 C 506.010 329.179, 511.485 331.818, 511.963 331.523 C 514.370 330.035, 531.851 297.051, 540.064 278.500 C 547.243 262.285, 555.238 238.596, 556.938 228.500 C 557.587 224.650, 558.325 220.488, 558.578 219.250 C 558.864 217.853, 558.557 217.006, 557.769 217.015 C 557.071 217.023, 549.525 220.910, 541 225.653 M 569.614 218.824 C 569.387 219.196, 568.685 223.775, 568.054 229 C 564.512 258.320, 556.190 285.481, 538.408 325.750 C 537.619 327.538, 537.395 329, 537.910 329 C 538.425 329, 545.294 326.487, 553.173 323.415 C 601.868 304.433, 641.907 291.867, 696.357 278.478 C 710.578 274.981, 722.428 271.905, 722.690 271.643 C 724.215 270.119, 672.540 249.559, 639.500 238.544 C 613.210 229.780, 570.315 217.676, 569.614 218.824 M 301.391 284.750 C 305.483 314.075, 306.913 345.381, 305.073 365.361 C 304.422 372.435, 304.129 378.462, 304.422 378.756 C 304.716 379.049, 311.535 373.037, 319.575 365.395 C 341.066 344.970, 352.646 334.434, 370.287 319.256 C 378.969 311.786, 385.711 305.311, 385.268 304.868 C 382.552 302.152, 308.043 280, 301.623 280 C 301.129 280, 301.025 282.129, 301.391 284.750 M 711.692 286.988 C 677.222 297.228, 623.408 315.869, 590.500 328.968 C 571.519 336.523, 540 350.241, 540 350.948 C 540 351.371, 544.612 355.463, 550.250 360.042 C 571.527 377.322, 595.333 403.077, 610.570 425.299 C 613.831 430.057, 616.844 433.961, 617.265 433.975 C 618.373 434.011, 693.935 338.907, 710.202 317 C 718.330 306.054, 734 282.710, 734 281.547 C 734 280.499, 731.379 281.138, 711.692 286.988 M 736.766 301.290 C 714.400 345.515, 697.462 368.545, 658.739 407.378 C 646.740 419.411, 637.070 429.404, 637.250 429.583 C 637.430 429.763, 646.109 427.904, 656.538 425.452 C 725.273 409.293, 812.972 394.986, 864.500 391.527 C 869.450 391.194, 874.974 390.692, 876.776 390.411 L 880.051 389.900 867.276 376.420 C 847.659 355.722, 826.454 336.984, 803.097 319.711 C 784.946 306.288, 749.607 283.980, 746.542 284.010 C 745.969 284.016, 741.570 291.792, 736.766 301.290 M 414.528 319.144 C 414.259 319.890, 412.710 325.675, 411.086 332 C 405.126 355.223, 398.359 373.283, 387.339 395.376 C 383.258 403.558, 380.053 410.386, 380.216 410.549 C 380.379 410.713, 385.010 408.118, 390.506 404.784 C 412.400 391.504, 433.691 379.595, 458 367.033 C 472.025 359.786, 483.898 353.468, 484.384 352.994 C 485.672 351.739, 481.718 349.530, 449.500 333.509 C 419.160 318.421, 415.355 316.858, 414.528 319.144 M 378.948 334.102 C 347.646 359.159, 307.990 393.969, 308.008 396.374 C 308.013 396.993, 311.018 399.075, 314.687 401 C 323.702 405.731, 331.627 411.643, 341.811 421.236 C 351.791 430.636, 349.667 431.630, 360.496 412.500 C 371.368 393.296, 382.266 368.459, 388.798 348 C 392.440 336.592, 396.252 321.919, 395.714 321.381 C 395.501 321.167, 387.956 326.892, 378.948 334.102 M 504.784 382.797 C 480.659 417.954, 445.194 458.250, 408.676 491.994 C 401.240 498.866, 395.289 504.622, 395.453 504.786 C 395.617 504.950, 407.169 500.957, 421.125 495.914 C 470.801 477.962, 530.042 459.077, 581.730 444.717 C 592.306 441.778, 601.223 439.110, 601.546 438.787 C 602.315 438.018, 578.514 416.811, 563.388 404.787 C 545.803 390.809, 516.290 369.927, 514.288 370.047 C 513.855 370.073, 509.578 375.811, 504.784 382.797 M 456.500 390.374 C 416.067 411.108, 363.340 440.951, 362.285 443.699 C 361.990 444.468, 363.136 448.113, 364.831 451.799 C 372.543 468.565, 376.358 483.323, 377.613 501.250 C 378.192 509.523, 378.511 510.821, 379.718 509.819 C 383.930 506.323, 429.584 450.164, 448.670 425 C 464.155 404.583, 483.839 376.965, 482.865 377.021 C 482.664 377.032, 470.800 383.041, 456.500 390.374 M 291.491 433.250 C 283.069 456.386, 277.189 468.654, 265.825 486.802 C 262.621 491.919, 260 496.333, 260 496.613 C 260 496.892, 264.387 493.689, 269.750 489.494 C 275.113 485.300, 290.627 473.512, 304.227 463.301 C 317.826 453.089, 328.771 444.439, 328.549 444.080 C 327.026 441.615, 298.204 423.035, 295.861 423.007 C 295.510 423.003, 293.543 427.613, 291.491 433.250 M 333.251 476.282 C 306.498 507.665, 265.662 544.723, 227.088 572.621 C 222.683 575.807, 219.204 578.538, 219.357 578.690 C 219.509 578.843, 229.504 574.285, 241.567 568.563 C 268.860 555.616, 290.062 546.563, 333.500 529.309 C 352.200 521.881, 367.709 515.601, 367.965 515.353 C 369.033 514.319, 364.576 496.827, 361.078 488.327 C 357.422 479.443, 349.400 465.407, 346.697 463.163 C 345.659 462.302, 342.740 465.150, 333.251 476.282 M 298.918 483.129 C 263.832 506.806, 244.435 520.726, 240.158 525.296 C 237.994 527.608, 232.623 534, 228.222 539.500 C 223.822 545, 215.109 555.162, 208.861 562.082 C 202.612 569.002, 196.600 575.723, 195.500 577.018 L 193.500 579.372 197.500 577.012 C 203.903 573.234, 228.655 556.371, 236.888 550.179 C 259.894 532.872, 284.414 510.716, 303.162 490.294 C 317.887 474.253, 323.078 468, 321.668 468 C 321.486 468, 311.248 474.808, 298.918 483.129 M 500.500 492.064 C 490.050 495.352, 471.928 501.223, 460.230 505.111 C 439.128 512.124, 438.977 512.194, 441.245 513.978 C 452.808 523.074, 524.742 568, 527.742 568 C 528.884 568, 529.020 566.071, 528.497 557.250 C 527.473 539.964, 525.001 511.426, 523.451 499 C 522.662 492.675, 522.012 487.163, 522.008 486.750 C 521.994 485.441, 519.917 485.954, 500.500 492.064 M 419.667 518.667 C 419.300 519.033, 418.995 524.096, 418.990 529.917 C 418.962 558.078, 413.135 597.764, 403.596 634.750 C 402.284 639.837, 401.558 644, 401.983 644 C 405.379 644, 464.586 615.307, 483.855 604.323 C 497.853 596.344, 527 577.389, 527 576.265 C 527 575.824, 521.263 572.621, 514.250 569.147 C 495.981 560.098, 471.856 546.662, 446.335 531.322 C 425.792 518.975, 421.429 516.904, 419.667 518.667 M 383 532.078 C 374.475 535.330, 356.605 542.294, 343.288 547.554 L 319.076 557.118 320.932 561.809 C 330.278 585.424, 343.185 604.233, 365.841 627.250 C 373.826 635.362, 380.923 642, 381.612 642 C 382.301 642, 383.107 641.212, 383.402 640.250 C 393.915 605.976, 398.655 580.727, 399.949 552.102 C 400.778 533.775, 400.527 525.895, 399.119 526.082 C 398.779 526.127, 391.525 528.825, 383 532.078 M 300.585 564.497 C 298.192 565.513, 297.152 567.148, 294.784 573.618 C 284.372 602.056, 254.809 663.642, 238.500 690.864 C 233.768 698.765, 230.106 705.439, 230.363 705.696 C 230.910 706.243, 285.985 688.254, 313.500 678.541 C 339.639 669.314, 372 656.894, 372 656.089 C 372 655.723, 367.950 651.858, 363.001 647.501 C 353.314 638.973, 339.343 623.775, 330.825 612.500 C 323.438 602.722, 311.847 582.571, 307.959 572.751 C 306.163 568.213, 304.425 564.221, 304.097 563.880 C 303.769 563.538, 302.188 563.816, 300.585 564.497 M 247 587.894 C 203.010 607.992, 188.142 615.562, 187.550 618.160 C 187.256 619.447, 186.558 622.525, 185.999 625 C 185.440 627.475, 184.696 635.596, 184.346 643.046 C 183.629 658.319, 184.752 668.469, 188.644 681.900 C 191.648 692.266, 198.564 707.388, 199.918 706.551 C 201.303 705.695, 224.203 668.194, 237.150 645.580 C 251.127 621.169, 273.472 576.976, 271.786 577.078 C 271.079 577.121, 259.925 581.988, 247 587.894 M 527.501 586.999 C 526.419 588.750, 501 606.494, 486.500 615.620 C 468.891 626.703, 442.039 642.122, 422.266 652.502 C 413.888 656.901, 407.025 660.766, 407.016 661.091 C 406.987 662.140, 442.120 682.628, 454.612 688.847 C 461.273 692.163, 472.073 697.123, 478.612 699.868 C 492.083 705.523, 517.964 714.370, 518.747 713.587 C 519.550 712.783, 523.613 683.290, 525.372 665.500 C 528.293 635.941, 530.490 586, 528.869 586 C 528.456 586, 527.840 586.449, 527.501 586.999 M 154.500 633.310 C 151.200 635.118, 141.975 640.135, 134 644.458 C 103.798 660.832, 91.301 669.619, 75.207 685.797 C 55.104 706.005, 39.041 730.035, 32.047 750.365 C 30.067 756.118, 28.287 766, 29.230 766 C 30.234 766, 100.793 745.779, 134 735.974 C 152.975 730.371, 170.075 725.343, 172 724.801 C 173.925 724.258, 175.899 723.434, 176.387 722.970 C 176.893 722.488, 174.607 716.267, 171.051 708.451 C 163.729 692.360, 160.187 679.380, 159.341 665.532 C 158.801 656.691, 160.040 639.021, 161.674 632.250 C 162.387 629.294, 161.625 629.407, 154.500 633.310 M 390.096 678.250 C 383.114 700.287, 367.578 736.177, 349.839 771.250 C 343.510 783.763, 338.698 794, 339.144 794 C 340.435 794, 387.842 775.903, 419 763.517 C 472.357 742.305, 518.310 721.809, 516.391 720.078 C 515.901 719.637, 512.350 718.518, 508.500 717.591 C 477.491 710.130, 435.992 693.996, 406.587 677.970 C 399.553 674.137, 393.482 671, 393.096 671 C 392.710 671, 391.360 674.263, 390.096 678.250 M 354 684.635 C 322.511 698.340, 278.855 713.543, 238 725.031 C 225.625 728.510, 215.327 731.488, 215.115 731.647 C 214.319 732.246, 229.471 749.221, 238.311 757.634 C 254.180 772.737, 280.052 792.174, 301.183 804.868 L 304.865 807.080 309.049 799.917 C 320.774 779.840, 331.495 759.731, 344.458 733.500 C 356.612 708.908, 369 681.694, 369 679.588 C 369 678.384, 366.187 679.331, 354 684.635 M 503 736.187 C 479.781 749.376, 415.784 779.953, 355.745 806.542 C 341.030 813.058, 329.354 818.754, 329.799 819.199 C 331.249 820.649, 353.118 829.983, 368.987 835.924 C 387.896 843.004, 409.207 849.581, 430.500 854.907 C 446.868 859.002, 477.007 865.346, 477.506 864.802 C 479.959 862.134, 503.720 782.364, 510.924 752.613 C 516.379 730.089, 516.398 729.980, 514.829 730.111 C 514.098 730.173, 508.775 732.907, 503 736.187 M 134.500 751.115 C 53.262 770.194, 36.465 774.157, 32.612 775.149 L 28.725 776.151 29.318 782.326 C 30.779 797.526, 41.437 818.897, 56.691 837.216 C 63.917 845.894, 86.741 868.019, 88.413 867.965 C 89.011 867.946, 93.170 862.434, 97.655 855.715 C 102.141 848.997, 119.363 824.411, 135.928 801.080 C 170.127 752.909, 177.528 742.177, 176.925 741.633 C 176.691 741.423, 157.600 745.689, 134.500 751.115 M 174.196 775.250 C 135.550 821.787, 112.289 851.182, 100.604 868.251 C 96.510 874.231, 96.589 876.100, 100.999 877.500 C 102.895 878.102, 127.352 869.870, 200 844.179 C 251.375 826.011, 275.840 817.189, 277.639 816.182 C 278.549 815.673, 276.003 813.664, 269.779 809.979 C 245.243 795.453, 223.432 777.671, 202.651 755.250 C 199.465 751.813, 196.664 749, 196.427 749 C 196.189 749, 186.185 760.813, 174.196 775.250 M 305.826 846.781 C 287.476 874.241, 267.346 901.398, 248.538 924.067 C 237.406 937.483, 237.252 937.765, 240.422 938.970 C 242.429 939.734, 249.814 937.940, 277.712 929.913 C 380.595 900.311, 468.624 873.521, 471.359 870.980 C 471.831 870.542, 469.131 869.878, 465.359 869.505 C 461.586 869.133, 451.255 867.754, 442.400 866.442 C 400.816 860.279, 369.411 852.423, 329.247 838.133 L 314.994 833.062 305.826 846.781 M 277 837.137 C 259.373 842.621, 205.787 857.794, 159 870.550 C 133.425 877.523, 112.124 883.576, 111.664 884 C 109.555 885.948, 148.277 907.042, 168.500 914.962 C 180.853 919.800, 223.732 935, 225.027 935 C 225.488 935, 228.230 931.063, 231.120 926.250 C 234.011 921.438, 246.322 901.750, 258.480 882.500 C 282.691 844.164, 288 835.553, 288 834.619 C 288 833.747, 287.609 833.837, 277 837.137 M 457 884.237 C 405.577 907.215, 372.010 917.886, 297.062 935.081 C 280.253 938.938, 265.375 942.376, 264 942.721 L 261.500 943.349 264.500 944.188 C 280.298 948.603, 424.607 972, 436.043 972 C 438.667 972, 439.322 971.416, 440.947 967.624 C 448.396 950.245, 473.195 881.211, 472.795 878.965 C 472.551 877.599, 469.802 878.517, 457 884.237" stroke="none" fill="#060606" fill-rule="evenodd"/></svg>