<?xml version="1.0" encoding="utf-8"?>
<svg viewBox="0 0 500 500" xmlns="http://www.w3.org/2000/svg" xmlns:xlink="http://www.w3.org/1999/xlink" xmlns:bx="https://boxy-svg.com">
  <defs>
    <linearGradient id="color-0" bx:pinned="true">
      <stop style="stop-color: #bdc3c7;" offset="0"/>
      <stop style="stop-color: #2c3e50;" offset="1"/>
    </linearGradient>
    <linearGradient id="color-0-0" gradientUnits="userSpaceOnUse" x1="24.881" y1="-992.059" x2="24.881" y2="1700.772" xlink:href="#color-0"/>
  </defs>
  <g transform="matrix(0.139379, 0, 0, 0.139379, 193.130585, 195.724594)">
    <rect width="3269.291" height="3269.291" rx="552.305" ry="552.305" style="stroke: rgb(0, 0, 0); paint-order: fill; fill: rgb(216, 216, 216);" y="-1384.646" x="-1385.646"/>
    <path d="M -781.796 -1244.772 L 1267.446 -1244.772 C 1529.991 -1244.772 1742.825 -1031.938 1742.825 -769.393 L 1742.825 1279.849 C 1742.825 1542.394 1529.991 1755.228 1267.446 1755.228 L -781.796 1755.228 C -1044.341 1755.228 -1257.175 1542.394 -1257.175 1279.849 L -1257.175 -769.393 C -1257.175 -1031.938 -1044.341 -1244.772 -781.796 -1244.772 Z M 1074.527 300.092 C 1056.282 256.642 1027.174 208.78 1002.02 169.089 C 945.971 80.654 886.013 -4.976 819.848 -86.193 C 741.974 -181.774 656.631 -270.073 563.467 -350.846 C 456.73 -443.385 342.129 -525.126 222.161 -599.477 C 189.344 -619.817 156.362 -639.956 122.834 -659.091 C 73.652 -687.159 20.409 -705.246 -34.155 -719.395 C -77.619 -730.666 -121.227 -741.536 -165.121 -750.92 C -182.864 -754.708 -201.533 -754.342 -219.807 -755.383 C -260.064 -757.686 -300.35 -759.558 -340.593 -761.983 C -345.342 -762.27 -350.623 -763.949 -354.497 -766.654 C -370.303 -777.689 -385.693 -789.333 -401.14 -800.87 C -404.605 -803.453 -407.827 -806.402 -410.948 -809.401 C -437.86 -835.309 -469.794 -853.941 -501.966 -872.215 C -560.224 -905.305 -620.24 -934.585 -683.715 -956.425 C -723.168 -969.999 -763.318 -980.718 -804.917 -984.879 C -838.221 -988.208 -871.512 -987.907 -904.135 -978.982 C -959.208 -963.915 -997.055 -928.902 -1020.48 -877.517 C -1034.255 -847.305 -1041.086 -815.679 -1038.618 -782.374 C -1036.157 -749.076 -1026.284 -717.759 -1012.358 -687.632 C -998.468 -657.585 -981.105 -629.525 -961.418 -603.036 C -939.363 -573.368 -915.744 -544.849 -893.782 -515.11 C -858.368 -467.154 -820.098 -421.301 -787.733 -371.092 C -768.283 -340.923 -752.965 -309.125 -745.001 -273.832 C -735.975 -233.834 -721.69 -195.435 -707.685 -156.964 C -690.61 -110.07 -674.151 -62.947 -656.946 -16.096 C -633.485 47.78 -605.073 109.396 -570.19 167.884 C -554.685 193.899 -538.205 219.334 -522.134 245.005 C -514.995 256.42 -505.567 265.79 -495.716 274.844 C -488.857 281.151 -481.927 287.5 -475.929 294.589 C -471.05 300.365 -466.96 306.994 -463.524 313.752 C -458.537 323.575 -457.526 332.521 -464.621 343.362 C -479.2 365.625 -485.45 391.626 -490.558 417.398 C -499.368 461.867 -511.537 505.388 -523.906 548.924 C -534.553 586.419 -541.577 624.739 -547.224 663.317 C -557.003 730.15 -559.521 797.34 -557.06 864.725 C -555.388 910.37 -550.732 955.757 -542.976 1000.807 C -532.551 1061.311 -517.377 1120.531 -495.078 1177.807 C -469.988 1242.264 -436.346 1301.692 -390.263 1353.622 C -368.653 1377.973 -197.099 1426.438 -161.147 1393.176 C -143.569 1376.918 -132.828 1356.356 -125.295 1333.992 C -116.965 1309.268 -113.005 1283.597 -109.252 1257.89 C -104.008 1221.981 -98.985 1186.043 -93.418 1150.191 C -90.354 1130.482 -86.63 1110.86 -82.692 1091.301 C -81.077 1083.273 -78.121 1075.517 -75.775 1067.632 L -73.687 1067.654 C -72.475 1069.756 -71.14 1071.801 -70.057 1073.967 C -39.808 1134.751 -10.127 1195.829 20.975 1256.176 C 30.36 1274.392 43.066 1291.037 55.321 1307.611 C 93.669 1359.491 137.959 1406.098 184.321 1450.81 C 225.626 1490.644 269.219 1527.816 314.807 1562.642 C 335.506 1578.462 354.993 1595.581 373.159 1614.25 C 385.944 1627.387 398.816 1640.452 412.046 1653.136 C 439.403 1679.36 451.901 1688.214 485.12 1706 L 1074.527 300.092 Z" style="stroke: rgb(0, 0, 0);"/>
    <g transform="matrix(0.803236, 0, 0, 0.803236, -3521.535889, 308.091339)" style="">
      <path d="M 5091.95 139.948 L 4773.682 139.948 C 4762.593 -398.679 4731.561 -905.08 4680.589 -1379.255 L 4677.836 -1379.255 L 4193.34 139.948 L 3951.262 139.948 L 3469.85 -1379.255 L 3467.015 -1379.255 C 3431.191 -923.605 3408.622 -417.205 3399.306 139.948 L 3109.14 139.948 C 3127.961 -537.846 3174.861 -1173.273 3249.841 -1766.333 L 3644.159 -1766.333 L 4103.128 -365.621 L 4105.976 -365.621 L 4567.779 -1766.333 L 4945.087 -1766.333 C 5027.799 -1071.787 5076.59 -436.361 5091.459 139.948 L 5091.962 139.948 L 5091.95 139.948 Z M 6472.267 -1266.351 C 6342.628 -561.512 6171.767 -49.275 5959.681 270.364 C 5794.501 516.483 5613.323 639.585 5416.145 639.672 C 5363.596 639.672 5298.885 623.669 5221.828 592.228 L 5221.828 422.416 C 5265.724 428.363 5309.986 431.189 5354.283 430.874 C 5446.279 430.874 5520.42 405.485 5576.704 354.707 C 5644.218 292.637 5677.974 222.968 5677.974 145.7 C 5677.974 92.86 5651.679 -15.373 5599.089 -178.999 L 5249.931 -1266.351 L 5562.528 -1266.351 L 5813.216 -453.304 C 5869.384 -268.771 5892.84 -139.745 5883.585 -66.226 C 6020.698 -433.455 6116.479 -833.514 6170.926 -1266.398 L 6472.186 -1266.398 L 6472.267 -1266.351 Z" style="fill: rgb(216, 216, 216);"/>
    </g>
    <path style="stroke: rgb(186, 218, 85); paint-order: fill; fill-rule: nonzero; fill: rgb(228, 142, 0);" d="M 357.772 1748.021 C 358.96 1731.626 358.96 1716.013 358.96 1700.776 C 325.732 1682.988 313.23 1674.132 285.862 1647.908 C 272.628 1635.227 259.757 1622.157 246.968 1609.023 C 228.792 1590.356 209.301 1573.233 188.595 1557.419 C 142.995 1522.591 99.388 1485.421 58.071 1445.584 C 11.7 1400.873 -32.6 1354.266 -70.966 1302.386 C -83.222 1285.811 -101.361 1276.196 -101.841 1277.05 C -102.972 1279.061 -101.381 1263.322 -99.824 1252.664 C -94.581 1216.758 -89.557 1180.819 -83.992 1144.964 C -80.932 1125.254 -77.204 1105.635 -73.268 1086.078 C -71.653 1078.048 -68.696 1070.29 -66.35 1062.408 L -64.263 1062.427 C -63.047 1064.529 -61.713 1066.571 -60.633 1068.741 C -30.383 1129.527 -0.703 1190.605 30.397 1250.951 C 39.785 1269.166 52.489 1285.811 64.742 1302.386 C 103.097 1354.266 147.385 1400.873 193.743 1445.584 C 235.048 1485.421 278.643 1522.591 324.23 1557.419 C 344.93 1573.233 364.416 1590.356 382.587 1609.023 C 395.372 1622.157 408.239 1635.227 421.47 1647.908 C 448.83 1674.132 461.329 1682.988 494.547 1700.776 C 494.547 1715.081 494.547 1729.717 493.565 1745.02 C 422.152 1746.921 355.88 1748.282 357.772 1748.021 Z M -441.233 1408.373 C -470.564 1393.635 -495.057 1372.744 -516.669 1348.398 C -562.764 1296.469 -596.418 1237.038 -621.52 1172.581 C -643.823 1115.306 -659 1056.085 -669.424 995.581 C -677.186 950.534 -681.845 905.14 -683.512 859.5 C -685.974 792.112 -683.458 724.92 -673.675 658.09 C -668.029 619.514 -661.002 581.192 -650.351 543.7 C -637.981 500.159 -625.808 456.638 -616.991 412.174 C -611.882 386.402 -605.63 360.396 -591.049 338.134 C -583.951 327.296 -584.962 318.346 -589.953 308.528 C -593.389 301.768 -597.481 295.14 -602.362 289.366 C -608.358 282.271 -615.296 275.927 -622.158 269.619 C -632.006 260.565 -641.438 251.191 -648.582 239.781 C -664.658 214.107 -681.137 188.671 -696.652 162.661 C -731.539 104.171 -759.96 42.553 -783.43 -21.326 C -800.642 -68.173 -817.101 -115.296 -834.18 -162.192 C -848.189 -200.66 -862.477 -239.06 -871.51 -279.06 C -879.478 -314.352 -894.795 -346.149 -914.253 -376.322 C -946.63 -426.529 -984.905 -472.382 -1020.33 -520.335 C -1042.301 -550.074 -1065.922 -578.591 -1087.985 -608.265 C -1107.678 -634.753 -1125.046 -662.814 -1138.94 -692.855 C -1152.873 -722.982 -1162.743 -754.3 -1165.209 -787.602 C -1167.676 -820.907 -1160.843 -852.534 -1147.067 -882.744 C -1123.636 -934.126 -1085.778 -969.144 -1030.688 -984.208 C -998.058 -993.13 -964.759 -993.439 -931.441 -990.106 C -918.673 -988.829 -906.041 -986.934 -893.523 -984.529 C -893.919 -984.423 -894.315 -984.316 -894.711 -984.208 C -949.785 -969.144 -987.633 -934.126 -1011.057 -882.744 C -1024.829 -852.534 -1031.66 -820.907 -1029.194 -787.602 C -1026.729 -754.3 -1016.861 -722.982 -1002.932 -692.855 C -989.042 -662.814 -971.679 -634.753 -951.992 -608.265 C -929.935 -578.591 -906.32 -550.074 -884.356 -520.335 C -848.94 -472.382 -810.676 -426.529 -778.308 -376.322 C -758.856 -346.149 -743.543 -314.352 -735.577 -279.06 C -726.547 -239.06 -712.263 -200.66 -698.258 -162.192 C -681.184 -115.296 -664.729 -68.173 -647.522 -21.326 C -624.059 42.553 -595.646 104.171 -560.768 162.661 C -545.258 188.671 -528.783 214.107 -512.712 239.781 C -505.57 251.191 -496.141 260.565 -486.295 269.619 C -479.435 275.927 -472.499 282.271 -466.505 289.366 C -461.625 295.14 -457.534 301.768 -454.099 308.528 C -449.11 318.346 -448.099 327.296 -455.195 338.134 C -469.772 360.396 -476.022 386.402 -481.13 412.174 C -489.944 456.638 -502.114 500.159 -514.48 543.7 C -525.128 581.192 -532.153 619.514 -537.798 658.09 C -547.578 724.92 -550.093 792.112 -547.632 859.5 C -545.966 905.14 -541.308 950.534 -533.548 995.581 C -523.127 1056.085 -507.954 1115.306 -485.657 1172.581 C -460.563 1237.038 -426.918 1296.469 -380.836 1348.398 C -366.678 1364.352 -351.282 1378.822 -334.099 1391.049 C -339.873 1412.072 -404.234 1426.964 -441.233 1408.373 Z">
      <title>dfdf</title>
    </path>
    <path d="M 492.295 1700.772 C 459.076 1682.986 446.578 1674.132 419.221 1647.908 C 405.991 1635.224 393.119 1622.159 380.334 1609.022 C 362.168 1590.353 342.681 1573.234 321.982 1557.414 C 276.394 1522.588 232.801 1485.416 191.496 1445.582 C 145.134 1400.87 100.844 1354.263 62.496 1302.383 C 50.241 1285.809 37.535 1269.164 28.15 1250.948 C -2.952 1190.601 -32.633 1129.523 -62.882 1068.739 C -63.965 1066.573 -65.3 1064.528 -66.512 1062.426 L -68.6 1062.404 C -70.946 1070.289 -73.902 1078.045 -75.517 1086.073 C -79.455 1105.632 -83.179 1125.254 -86.243 1144.963 C -91.81 1180.815 -96.833 1216.753 -102.077 1252.662 C -105.83 1278.369 -109.79 1304.04 -118.12 1328.764 C -125.653 1351.128 -136.394 1371.69 -153.972 1387.948 C -189.924 1421.21 -251.354 1436.679 -307.668 1408.367 C -336.991 1393.631 -361.478 1372.745 -383.088 1348.394 C -429.171 1296.464 -462.813 1237.036 -487.903 1172.579 C -510.202 1115.303 -525.376 1056.083 -535.801 995.579 C -543.557 950.529 -548.213 905.142 -549.885 859.497 C -552.346 792.112 -549.828 724.922 -540.049 658.089 C -534.402 619.511 -527.378 581.191 -516.731 543.696 C -504.362 500.16 -492.193 456.639 -483.383 412.17 C -478.275 386.398 -472.025 360.397 -457.446 338.134 C -450.351 327.293 -451.362 318.347 -456.349 308.524 C -459.785 301.766 -463.875 295.137 -468.754 289.361 C -474.752 282.272 -481.682 275.923 -488.541 269.616 C -498.392 260.562 -507.82 251.192 -514.959 239.777 C -531.03 214.106 -547.51 188.671 -563.015 162.656 C -597.898 104.168 -626.31 42.552 -649.771 -21.324 C -666.976 -68.175 -683.435 -115.298 -700.51 -162.192 C -714.515 -200.663 -728.8 -239.062 -737.826 -279.06 C -745.79 -314.353 -761.108 -346.151 -780.558 -376.32 C -812.923 -426.529 -851.193 -472.382 -886.607 -520.338 C -908.569 -550.077 -932.188 -578.596 -954.243 -608.264 C -973.93 -634.753 -991.293 -662.813 -1005.183 -692.86 C -1019.109 -722.987 -1028.982 -754.304 -1031.443 -787.602 C -1033.911 -820.907 -1027.08 -852.533 -1013.305 -882.745 C -989.88 -934.13 -952.033 -969.143 -896.96 -984.21 C -864.337 -993.135 -831.046 -993.436 -797.742 -990.107 C -756.143 -985.946 -715.993 -975.227 -676.54 -961.653 C -613.065 -939.813 -553.049 -910.533 -494.791 -877.443 C -462.619 -859.169 -430.685 -840.537 -403.773 -814.629 C -400.652 -811.63 -397.43 -808.681 -393.965 -806.098 C -378.518 -794.561 -363.128 -782.917 -347.322 -771.882 C -343.448 -769.177 -338.167 -767.498 -333.418 -767.211 C -293.175 -764.786 -252.889 -762.914 -212.632 -760.611 C -194.358 -759.57 -175.689 -759.936 -157.946 -756.148 C -114.052 -746.764 -70.444 -735.894 -26.98 -724.623 C 27.584 -710.474 80.827 -692.387 130.009 -664.319 C 163.537 -645.184 196.519 -625.045 229.336 -604.705 C 349.304 -530.354 463.905 -448.613 570.642 -356.074 C 663.806 -275.301 749.149 -187.002 827.023 -91.421 C 893.188 -10.204 953.146 75.426 1009.195 163.861 C 1034.349 203.552 1063.457 251.414 1081.702 294.864 L 492.295 1700.772 Z" style="stroke: rgb(0, 0, 0); opacity: 0.7; fill: url('#color-0-0');"/>
    <path d="M -175.921 -249.651 C -184.737 -227.925 -199.301 -211.8 -218.076 -198.416 C -219.293 -200.659 -220.785 -203.165 -222.052 -205.779 C -236.708 -236.022 -251.523 -266.19 -265.856 -296.586 C -270.753 -306.971 -277.12 -316.161 -284.568 -324.73 C -298.116 -340.32 -311.842 -355.757 -325.203 -371.504 C -329.923 -377.068 -333.847 -383.317 -338.037 -389.32 C -341.867 -394.806 -345.565 -400.383 -349.853 -406.704 C -348.209 -407.43 -346.083 -408.786 -343.765 -409.328 C -316.835 -415.637 -289.293 -418.963 -261.635 -419.244 C -258.565 -419.276 -254.957 -418.515 -252.488 -416.824 C -242.617 -410.06 -233.351 -402.402 -223.394 -395.777 C -203.678 -382.66 -189.218 -365.47 -179.831 -343.684 C -176.437 -335.809 -171.186 -328.753 -167.233 -321.09 C -165.653 -318.028 -164.433 -314.317 -164.517 -310.938 C -165.034 -290.192 -167.857 -269.808 -175.921 -249.651 Z" style="stroke: rgb(186, 218, 85); fill: rgb(216, 216, 216);"/>
    <path d="M 492.533 1690.641 L 492.533 1339.311 C 492.534 1098.647 492.543 857.983 492.517 617.319 C 492.515 597.551 494.51 578.121 500.847 559.259 C 512.963 523.19 535.265 494.126 563.099 468.967 C 600.579 435.089 644.069 410.759 689.947 390.457 C 751.917 363.033 816.551 343.727 882.418 328.323 C 897.909 324.7 913.474 321.393 1009.03 305.884 C 1148.605 286.435 1208.476 282.545 1268.427 280.857 C 1375.122 277.852 1481.677 280.469 1587.919 291.918 C 1644.23 297.988 1700.27 305.706 1756.432 317.233 C 1760.938 318.143 1764.972 318.034 1768.753 318.958 C 1806.033 328.068 1843.265 337.378 1880.529 346.556 C 1886.277 347.971 1892.117 349.01 1897.914 350.222 C 1897.914 350.222 1897.914 350.252 1898.057 350.888 C 1899.379 351.778 1900.558 352.033 1901.737 352.288 C 1950.471 367.093 1997.954 385.143 2043.101 408.796 C 2081.252 428.784 2116.795 452.554 2146.669 484.106 C 2173.54 512.486 2192.581 544.926 2199.277 583.822 C 2200.738 592.321 2201.475 600.928 2201.482 609.552 C 2201.586 1015.113 2201.488 1420.675 2201.686 1826.236 C 2201.709 1873.266 2185.633 1913.656 2155.382 1948.963 C 2125.722 1983.578 2088.952 2008.991 2049.201 2030.416 C 1988.938 2062.896 1924.687 2084.874 1858.834 2102.794 C 1791.098 2121.226 1722.244 2133.874 1652.801 2143.373 C 1618.983 2147.998 1584.955 2151.298 1550.938 2154.218 C 1519.214 2156.941 1487.393 2158.635 1455.588 2160.271 C 1433.351 2161.414 1411.074 2161.8 1388.81 2162.332 C 1366.529 2162.865 1344.239 2163.592 1321.958 2163.443 C 1297.028 2163.276 1272.081 2162.651 1247.18 2161.442 C 1215.04 2159.882 1182.88 2158.206 1150.833 2155.392 C 1099.313 2150.869 1047.934 2145.072 996.823 2136.828 C 950.913 2129.423 905.252 2120.838 860.159 2109.603 C 801.438 2094.973 743.756 2076.943 688.386 2052.203 C 647.906 2034.116 609.362 2012.738 574.799 1984.633 C 542.544 1958.406 516.771 1927.364 501.732 1886.615 C 494.971 1867.265 492.667 1848.635 492.375 1829.726 C 492.058 1809.242 492.097 1788.751 492.115 1767.414 C 492.16 1763.134 492.071 1759.703 492.101 1755.504 C 492.069 1753.202 491.918 1751.667 492.031 1749.235 C 492.296 1732.725 492.296 1717.113 492.296 1701.875 L 492.533 1690.641 Z" style="stroke: rgb(186, 218, 85); fill: rgb(216, 216, 216);"/>
    <path d="M 492.296 1701.875 C 459.078 1684.088 446.579 1675.232 419.219 1649.008 C 405.989 1636.328 393.121 1623.258 380.336 1610.123 C 362.165 1591.456 342.679 1574.333 321.979 1558.519 C 276.391 1523.691 232.797 1486.521 191.492 1446.684 C 145.134 1401.973 100.846 1355.365 62.492 1303.486 C 50.238 1286.912 37.534 1270.266 28.146 1252.051 C -2.954 1191.705 -32.634 1130.627 -62.884 1069.841 C -63.964 1067.671 -65.298 1065.629 -66.514 1063.527 L -68.601 1063.508 C -70.947 1071.39 -73.904 1079.148 -75.519 1087.178 C -79.455 1106.735 -83.183 1126.354 -86.243 1146.064 C -91.808 1181.919 -96.832 1217.858 -102.075 1253.764 C -105.829 1279.468 -109.794 1305.142 -118.122 1329.864 C -125.657 1352.231 -136.392 1372.791 -153.97 1389.052 C -189.925 1422.312 -251.353 1437.78 -307.672 1409.472 C -336.994 1394.734 -361.481 1373.844 -383.087 1349.498 C -429.169 1297.569 -462.814 1238.138 -487.907 1173.681 C -510.205 1116.406 -525.377 1057.185 -535.799 996.681 C -543.559 951.634 -548.217 906.241 -549.883 860.6 C -552.344 793.212 -549.828 726.02 -540.049 659.19 C -534.404 620.614 -527.379 582.292 -516.731 544.8 C -504.365 501.26 -492.195 457.738 -483.381 413.273 C -478.273 387.502 -472.023 361.496 -457.446 339.234 C -450.35 328.396 -451.361 319.446 -456.35 309.628 C -459.785 302.868 -463.877 296.24 -468.755 290.466 C -474.75 283.371 -481.685 277.027 -488.546 270.719 C -498.392 261.665 -507.821 252.291 -514.963 240.881 C -531.034 215.207 -547.509 189.771 -563.019 163.761 C -597.897 105.271 -626.309 43.653 -649.773 -20.226 C -666.98 -67.073 -683.435 -114.196 -700.509 -161.092 C -714.514 -199.559 -728.798 -237.959 -737.828 -277.96 C -745.794 -313.251 -761.108 -345.049 -780.559 -375.222 C -812.927 -425.429 -851.191 -471.282 -886.607 -519.235 C -908.571 -548.974 -932.187 -577.491 -954.242 -607.165 C -973.93 -633.653 -991.292 -661.714 -1005.182 -691.755 C -1019.112 -721.883 -1028.98 -753.2 -1031.445 -786.502 C -1033.911 -819.807 -1027.08 -851.434 -1013.308 -881.644 C -989.884 -933.026 -952.036 -968.044 -896.961 -983.108 C -864.341 -992.03 -831.051 -992.338 -797.741 -989.006 C -756.147 -984.844 -715.994 -974.126 -676.543 -960.552 C -613.065 -938.712 -553.049 -909.428 -494.792 -876.34 C -462.617 -858.066 -430.689 -839.432 -403.772 -813.525 C -400.654 -810.525 -397.431 -807.582 -393.969 -804.997 C -378.517 -793.457 -363.127 -781.818 -347.321 -770.777 C -343.452 -768.074 -338.168 -766.393 -333.421 -766.107 C -293.173 -763.683 -252.891 -761.815 -212.634 -759.512 C -194.36 -758.467 -175.689 -758.835 -157.95 -755.044 C -114.05 -745.662 -70.443 -734.792 -26.978 -723.519 C 27.58 -709.369 80.828 -691.283 130.008 -663.216 C 163.538 -644.08 196.517 -623.944 229.338 -603.603 C 349.304 -529.253 463.903 -447.51 570.64 -354.97 C 663.801 -274.2 749.15 -185.899 827.02 -90.317 C 893.188 -9.1 953.146 76.529 1009.192 164.961 C 1034.35 204.656 1063.459 252.515 1081.702 295.967 L 928.03 319.162 C 823.529 125.568 687.455 -60.963 528.248 -212.873 C 453.606 -284.093 373.801 -348.992 288.043 -408.876 C 235.007 -445.851 180.301 -480.156 123.625 -511.276 C 52.63 -550.256 -20.728 -583.998 -97.34 -610.499 C -120.974 -618.674 -144.801 -626.077 -169.829 -628.421 C -191.715 -630.471 -213.64 -632.121 -235.562 -633.754 C -262.802 -635.784 -290.176 -636.612 -317.269 -639.836 C -341.409 -642.708 -365.367 -646.784 -389.777 -645.172 C -398.746 -644.58 -406.82 -646.981 -414.807 -650.662 C -431.658 -658.427 -445.857 -669.945 -459.851 -681.816 C -476.613 -696.036 -492.329 -711.866 -510.541 -723.91 C -538.806 -742.604 -568.324 -759.565 -598.164 -775.681 C -648.284 -802.751 -701.241 -823.741 -753.887 -845.274 C -776.371 -854.471 -799.388 -862.439 -823.462 -866.424 C -844.566 -869.918 -865.872 -873.23 -885.272 -859.832 C -903.835 -856.596 -913.3 -844.606 -919.496 -827.498 C -923.433 -816.629 -926.779 -806.177 -926.092 -794.642 C -924.986 -776.069 -918.906 -758.779 -911.624 -741.956 C -898.592 -711.851 -881.654 -683.926 -861.321 -658.256 C -813.114 -597.393 -765.577 -536.044 -721.415 -472.149 C -700.19 -441.441 -679.286 -410.432 -664.366 -376.099 C -650.052 -343.161 -635.873 -310.035 -624.169 -276.117 C -602.468 -213.225 -582.539 -149.72 -562.01 -86.425 C -537.176 -9.855 -506.487 63.989 -463.321 132.355 C -444.72 161.815 -424.933 189.981 -398.274 212.829 C -391.458 218.67 -385.201 225.21 -379.045 231.765 C -361.84 250.088 -349.273 271.058 -345.201 296.172 C -342.492 312.877 -345.984 329.407 -349.279 345.71 C -355.29 375.456 -364.658 404.267 -375.091 432.72 C -386.659 464.27 -399.712 495.332 -409.953 527.3 C -435.032 605.584 -445.215 686.427 -447.747 768.312 C -449.572 827.373 -446.323 886.204 -438.488 944.812 C -428.284 1021.147 -409.478 1095.034 -377.611 1165.36 C -365.522 1192.038 -354.314 1219.163 -337.314 1243.298 C -321.449 1265.818 -301.876 1283.801 -275.882 1294.15 C -267.332 1297.554 -259.11 1300.252 -250.705 1292.18 C -245.956 1250.36 -241.155 1207.672 -236.25 1164.996 C -231.307 1121.981 -225.066 1079.185 -215.718 1036.856 C -200.213 966.649 -171.439 903.21 -123.053 849.152 C -105.99 830.089 -90.608 809.521 -74.117 789.219 C -68.228 791.69 -64.193 796.649 -61.555 802.334 C -57.792 810.445 -54.235 818.786 -51.865 827.381 C -46.459 846.986 -39.913 866.103 -31.835 884.791 C -5.162 946.498 20.03 1008.891 50.459 1068.885 C 118.633 1203.298 194.486 1333.171 281.273 1456.538 C 327.943 1522.88 377.035 1587.234 435.793 1643.469 C 453.141 1660.072 472.747 1674.315 492.533 1690.641 L 492.296 1701.875 Z" style="stroke: rgb(186, 218, 85); fill: rgb(0, 97, 138);"/>
    <path d="M 310.541 415.725 C 259.751 -589.791 286.213 -155.438 257.873 -595.356 L 505.063 -591.081 C 537.544 -238.188 557.786 105.489 565.79 415.725 L 310.541 415.725 Z" style="fill: rgb(216, 216, 216);"/>
    <path d="M 1251.52 937.452 C 1235.218 936.52 1218.918 935.54 1202.612 934.664 C 1138.032 931.194 1073.82 924.306 1009.875 914.632 C 943.003 904.515 876.868 891.035 811.909 872.12 C 749.485 853.945 688.661 831.735 631.985 799.308 C 630.968 798.726 629.637 798.696 627.844 798.261 L 627.844 808.817 C 627.844 943.476 627.987 1078.134 627.632 1212.792 C 627.595 1226.771 631.799 1238.219 640.731 1248.276 C 645.806 1253.991 651.177 1259.509 656.896 1264.574 C 673.953 1279.681 693.251 1291.544 713.36 1302.049 C 760.768 1326.816 811.088 1343.984 862.458 1358.235 C 916.716 1373.287 971.744 1384.905 1027.525 1392.504 C 1070.742 1398.39 1114.03 1404.28 1157.478 1407.8 C 1205.942 1411.726 1254.599 1413.81 1303.215 1415.204 C 1389.923 1417.691 1476.485 1413.952 1562.815 1405.594 C 1617.848 1400.266 1672.603 1392.784 1726.931 1382.323 C 1789.751 1370.227 1851.619 1354.674 1911.624 1332.244 C 1947.236 1318.933 1981.83 1303.495 2013.507 1282.19 C 2030.16 1270.989 2045.814 1258.63 2057.567 1242.008 C 2063.112 1234.165 2065.874 1225.698 2065.863 1215.9 C 2065.72 1079.241 2065.767 942.583 2065.768 805.925 L 2065.768 798 C 2063.504 798.642 2062.501 798.727 2061.71 799.18 C 2007.993 829.974 1950.478 851.581 1891.38 869.236 C 1781.83 901.963 1669.523 919.759 1555.915 930.048 C 1497.492 935.34 1438.924 938.536 1380.23 938.861 C 1378.775 938.87 1268.064 936.005 1251.52 937.452 Z" style="stroke: rgb(186, 218, 85);"/>
    <path d="M 1656.439 2006.019 C 1667.942 2004.158 1679.449 2002.324 1690.946 2000.429 C 1753.077 1990.186 1814.378 1976.435 1874.313 1956.939 C 1917.738 1942.813 1960.191 1926.416 1999.521 1902.82 C 2018.737 1891.292 2036.897 1878.403 2051.745 1861.362 C 2061.012 1850.726 2066.029 1839.014 2065.988 1824.238 C 2065.612 1689.908 2065.768 1555.578 2065.768 1421.247 L 2065.768 1410.262 C 2063.726 1410.756 2062.705 1410.777 2061.93 1411.223 C 2008.84 1441.779 1951.937 1463.077 1893.496 1480.639 C 1795.911 1509.965 1696.026 1527.715 1594.841 1537.853 C 1539.507 1543.397 1483.927 1547.457 1428.36 1549.48 C 1343.737 1552.562 1259.094 1551.069 1174.562 1544.757 C 1107.082 1539.718 1039.966 1532.064 973.264 1520.623 C 909.893 1509.754 847.334 1495.569 785.953 1476.325 C 732.5 1459.565 680.51 1439.363 631.795 1411.363 C 630.809 1410.796 629.464 1410.856 627.844 1410.537 L 627.844 1421.122 C 627.844 1555.452 628.004 1689.784 627.61 1824.112 C 627.567 1838.49 632.107 1850.007 641.024 1860.525 C 652.559 1874.132 666.432 1884.996 681.214 1894.763 C 723.24 1922.535 769.644 1940.722 817.174 1956.31 C 874.508 1975.115 933.18 1988.43 992.594 1998.765 C 1047.109 2008.248 1101.917 2015.62 1157.063 2019.62 C 1206.233 2023.188 1255.536 2025.37 1304.82 2026.834 C 1373.49 2028.872 1442.179 2027.226 1510.642 2021.615 C 1558.752 2017.673 1606.674 2011.427 1656.439 2006.019 Z" style="stroke: rgb(186, 218, 85);"/>
    <path d="M 1277.16 417.068 C 1345.484 414.48 1411.788 415.794 1478.018 419.615 C 1539.88 423.183 1601.499 429.355 1662.799 438.772 C 1734.942 449.855 1806.151 464.836 1875.675 487.263 C 1917.856 500.87 1958.988 517.01 1997.351 539.515 C 2014.628 549.65 2031.271 560.776 2045.281 575.232 C 2051.031 581.165 2056.151 587.837 2060.779 594.698 C 2067.812 605.124 2067.711 616.139 2060.555 626.484 C 2055.845 633.294 2050.766 640.006 2044.947 645.863 C 2026.206 664.723 2003.791 678.554 1980.414 690.764 C 1930.324 716.926 1877.026 734.589 1822.656 749.252 C 1756.997 766.959 1690.244 778.984 1622.852 787.787 C 1520.564 801.146 1417.83 806.172 1314.742 805.014 C 1313.765 805.003 1135.691 795.222 1131.654 794.815 C 1051.754 786.751 972.52 774.619 894.502 755.289 C 850.247 744.323 806.672 731.139 764.342 714.061 C 728.917 699.62 696.104 683.583 666.711 661.251 C 654.716 652.139 643.831 641.972 635.129 629.519 C 626.218 616.764 626.167 604.33 634.943 591.534 C 647.067 573.857 663.576 561.012 681.094 549.306 C 714.515 526.973 751.097 511.065 788.684 497.409 C 823.643 484.709 887.09 467.766 947.264 453.257 C 993.379 442.138 1014.249 437.275 1090.482 426.391 C 1200.952 413.608 1229.388 418.122 1277.16 417.068 Z" style="paint-order: stroke; stroke: rgb(0, 0, 0);"/>
  </g>
</svg>