<svg xmlns="http://www.w3.org/2000/svg" width="512" height="512" viewBox="0 0 512 512" version="1.1">
    <path d="" stroke="none" fill="#080404" fill-rule="evenodd"/>
    <path d="M 22.147 5.023 C 12.726 6.988, 5.172 13.745, 1.424 23.559 C 0.178 26.823, -0.141 29.982, 0.195 35.733 C 0.827 46.543, 4.506 53.719, 19.646 73.673 C 37.140 96.729, 40.788 102.453, 43.114 110.500 C 46.681 122.843, 57.137 152.188, 61.611 162.414 C 67.004 174.739, 75.993 189.926, 80.652 194.585 C 86.118 200.051, 87.200 202.713, 85.382 206.227 C 82.999 210.836, 74.326 246.557, 72.965 257.371 C 71.255 270.953, 72.241 296.518, 74.968 309.289 C 80.821 336.710, 93.902 359.310, 108.211 366.722 C 116.351 370.939, 127.539 368.902, 133.201 362.173 C 136.639 358.087, 138.545 351.909, 140.504 338.500 C 141.388 332.450, 142.678 324.800, 143.370 321.500 L 144.629 315.500 152.760 331.520 C 164.209 354.079, 175.207 366.963, 201 388.035 C 206.225 392.304, 212.750 398.138, 215.500 401 C 220.582 406.289, 227.006 411, 229.134 411 C 229.780 411, 226.031 406.837, 220.804 401.750 C 196.350 377.951, 162.406 321.598, 148.117 281.077 C 146.678 276.995, 145.001 273.491, 144.392 273.291 C 143.271 272.924, 134.564 283.126, 129.688 290.522 C 124.253 298.765, 120.582 313.625, 117.898 338.250 C 116.604 350.118, 116.241 350.548, 110.507 347.004 C 98.576 339.631, 87.975 305.213, 88.021 274 C 88.049 255.044, 90.617 242.228, 99.395 217.236 C 103.093 206.706, 103.920 199.549, 102.016 194.543 C 101.475 193.120, 98.198 188.928, 94.734 185.228 C 88.142 178.186, 81.086 166.897, 76.568 156.162 C 75.101 152.676, 70.942 140.751, 67.325 129.662 C 56.621 96.838, 52.100 88.036, 34.180 65.131 C 24.045 52.177, 19.328 44.717, 17.394 38.583 C 15.922 33.910, 15.918 33.132, 17.354 29.695 C 19.347 24.925, 24.337 22.561, 30.377 23.526 C 42.213 25.417, 71.953 40.019, 83.359 49.540 C 87.602 53.082, 92.070 56.184, 93.287 56.434 C 95.475 56.882, 97.799 57.091, 121.772 59.005 C 136.251 60.160, 145.728 63.291, 166.297 73.712 C 208.085 94.884, 248.464 131.442, 276.464 173.453 C 288.523 191.546, 294.587 202.673, 300.369 217.311 C 302.934 223.807, 309.806 239.332, 315.640 251.811 C 321.474 264.290, 328.032 278.550, 330.213 283.500 C 336.787 298.419, 345.885 315.624, 350.553 321.964 C 355.722 328.986, 359.801 331.333, 375.016 336.039 C 399.408 343.584, 410.527 348.683, 427 359.876 C 435.525 365.668, 447.776 373.949, 454.223 378.278 C 460.671 382.606, 467.151 387.577, 468.623 389.324 L 471.299 392.500 455.400 393.170 C 446.655 393.538, 435.225 394.581, 430 395.488 C 416.587 397.816, 394.078 405.377, 391.329 408.478 L 389.159 410.927 393.625 419.929 C 402.922 438.666, 421.952 454.216, 456.703 471.473 C 478.082 482.090, 494.476 492.720, 505.926 503.390 C 516.975 513.686, 511.659 500.841, 499.251 487.262 C 473.861 459.476, 467.148 453.571, 448.301 442.447 C 433.509 433.716, 426.056 428.131, 422.661 423.233 C 419.422 418.558, 419.378 418, 422.250 417.998 C 423.488 417.998, 429.553 416.642, 435.729 414.987 C 441.905 413.331, 453.380 411.116, 461.229 410.065 C 479.454 407.625, 495 403.379, 495 400.843 C 495 399.856, 491.512 394.725, 487.250 389.439 C 476.193 375.729, 445.342 350.844, 421.294 336.238 C 414.621 332.185, 394.611 322.739, 375.364 314.557 C 373.089 313.590, 370.216 311.431, 368.980 309.759 C 366.434 306.316, 350.257 274.011, 339.805 251.500 C 333.091 237.040, 327.333 223.808, 317.611 200.500 C 306.279 173.331, 272.019 128.110, 244.273 103.699 C 216.371 79.151, 177.837 53.440, 160.089 47.530 C 144.282 42.266, 132.747 39.916, 118.123 38.982 C 102.529 37.986, 102.434 37.953, 93.500 30.502 C 87.172 25.224, 78.677 20.139, 66.817 14.530 C 50.095 6.621, 32.468 2.870, 22.147 5.023 M 111 90.656 C 103.356 91.829, 102 92.159, 102 92.851 C 102 93.269, 104.447 96.577, 107.437 100.202 C 110.427 103.828, 114.755 110.553, 117.053 115.147 C 119.352 119.741, 121.367 123.649, 121.531 123.831 C 122.488 124.894, 126.105 121.415, 127.903 117.701 C 130.527 112.279, 130.572 107.041, 128.034 102.067 C 125.829 97.744, 117.302 89.944, 115 90.143 C 114.175 90.214, 112.375 90.445, 111 90.656"
          stroke="none" fill="#040404" fill-rule="evenodd"/>
</svg>