<svg xmlns="http://www.w3.org/2000/svg" width="512" height="512" viewBox="0 0 512 512" version="1.1"><path d="" stroke="none" fill="#080404" fill-rule="evenodd"/><path d="M 233.495 223.388 C 231.128 224.419, 226.191 231.427, 210.245 256.388 C 199.110 273.818, 190 288.511, 190 289.039 C 190 289.568, 193.302 290, 197.337 290 L 204.675 290 221.013 264.009 C 230 249.714, 237.451 238.127, 237.571 238.259 C 237.692 238.392, 241.638 244.688, 246.341 252.250 L 254.892 266 237.909 266 L 220.925 266 224.984 271.976 L 229.043 277.953 246.223 278.226 L 263.404 278.500 266.814 284.250 L 270.224 290 277.612 290 C 281.675 290, 285 289.592, 285 289.094 C 285 288.595, 275.813 273.861, 264.583 256.350 C 241.782 220.793, 241.102 220.073, 233.495 223.388 M 23.500 224.362 C 17.751 226.215, 15.280 227.701, 10.266 232.322 C 3.643 238.427, 0.748 244.827, 0.232 254.500 C -0.288 264.269, 2.070 271.526, 7.928 278.181 C 16.858 288.326, 25.515 290.390, 56.789 289.830 C 77.667 289.456, 78.716 289.341, 84.120 286.835 C 91.382 283.468, 96.889 278.434, 100.562 271.804 C 103.263 266.927, 103.500 265.694, 103.500 256.500 C 103.500 248.165, 103.127 245.744, 101.262 241.960 C 98.163 235.670, 91.529 229.204, 85 226.108 C 79.555 223.526, 79.239 223.498, 53.500 223.286 C 34.504 223.130, 26.422 223.420, 23.500 224.362 M 111.237 256.250 L 111.500 289.500 118 289.500 L 124.500 289.500 124.766 262.250 L 125.032 235 144.891 235 C 155.813 235, 166.150 235.280, 167.861 235.622 C 172.651 236.580, 176 240.522, 176 245.202 C 176 254.552, 173.974 255.387, 149.782 256 L 130.065 256.500 149.282 273.224 L 168.500 289.947 177.872 289.974 C 189.047 290.005, 189.307 290.757, 173.625 277.693 L 162.590 268.500 168.545 267.916 C 175.308 267.253, 179.328 265.441, 183.136 261.339 C 193.822 249.828, 190.570 231.899, 176.617 225.402 C 171.583 223.058, 171.011 223.019, 141.237 223.010 L 110.973 223 111.237 256.250 M 300.300 224.862 C 286.039 229.790, 277.850 241.284, 277.724 256.546 C 277.619 269.348, 285.241 281.078, 297.253 286.602 C 303.482 289.467, 303.569 289.477, 327.052 289.828 L 350.605 290.179 354.302 284.189 C 356.336 280.894, 358 277.950, 358 277.645 C 358 277.341, 345.923 276.959, 331.162 276.796 L 304.324 276.500 300.412 273.766 C 294.730 269.796, 291.734 264.839, 291.212 258.548 C 290.439 249.216, 294.295 242.020, 302.376 237.715 C 306.191 235.683, 308.134 235.492, 328.317 235.174 L 350.134 234.829 353.567 229.463 C 355.455 226.511, 357 223.849, 357 223.548 C 357 223.247, 345.413 223.015, 331.250 223.033 C 309.124 223.061, 304.768 223.318, 300.300 224.862 M 363 252.351 C 363 270.267, 363.409 282.875, 364.050 284.713 C 364.627 286.369, 366.223 288.236, 367.597 288.862 C 369.280 289.629, 379.543 290, 399.072 290 L 428.051 290 432.003 283.750 L 435.955 277.500 406.478 277.235 L 377 276.970 377 249.985 L 377 223 370 223 L 363 223 363 252.351 M 455.797 224.792 C 436.924 231.648, 427.868 252.946, 436.405 270.396 C 439.478 276.677, 445.850 283.265, 451.495 285.997 C 458.053 289.172, 465.082 290.001, 485.386 289.991 L 504.500 289.983 508.250 284.161 C 510.313 280.960, 512 278.060, 512 277.717 C 512 277.374, 500.153 276.960, 485.674 276.797 L 459.348 276.500 455.135 273.710 C 451.414 271.246, 447.014 265.857, 447.004 263.750 C 447.002 263.337, 458.867 263, 473.371 263 L 499.741 263 503.849 256.750 L 507.957 250.500 477.478 250.236 C 442.808 249.935, 443.826 250.256, 451.750 242.110 C 457.917 235.771, 461.579 235, 485.518 235 L 503.939 235 507.469 229.481 C 509.411 226.445, 511 223.745, 511 223.481 C 511 223.216, 499.637 223.019, 485.750 223.042 C 464.511 223.077, 459.753 223.355, 455.797 224.792 M 29.683 236.388 C 14.355 240.642, 9.490 260.811, 21.166 271.702 C 26.315 276.505, 29.379 277.002, 53.718 276.978 C 79.388 276.953, 81.772 276.441, 87.716 269.670 C 96.141 260.075, 93.485 244.897, 82.223 238.277 L 77.500 235.500 56 235.276 C 40.516 235.114, 33.152 235.425, 29.683 236.388" stroke="none" fill="#040404" fill-rule="evenodd"/></svg>