<svg xmlns="http://www.w3.org/2000/svg" width="512" height="512" viewBox="0 0 512 512" version="1.1"><path d="" stroke="none" fill="#080404" fill-rule="evenodd"/><path d="M 343.610 1.494 C 332.857 3.022, 316.651 6.515, 310.862 8.552 C 307.770 9.640, 305.369 9.535, 294.862 7.852 C 278.533 5.236, 254.810 4.992, 242.929 7.319 C 231.301 9.596, 221.423 13.080, 211.255 18.488 L 202.742 23.017 192.121 19.592 C 148.230 5.439, 104.223 2.829, 74.282 12.603 C 44.137 22.443, 23.665 43.969, 14.556 75.405 C 8.861 95.055, 7.112 126.786, 10.470 149.500 C 15.939 186.486, 28.888 239.024, 42.003 277.434 C 64.896 344.487, 90.864 377.716, 116.708 373.028 C 128.751 370.844, 133.052 367.361, 155.574 341.557 C 165.682 329.975, 176.147 318.054, 178.831 315.065 L 183.710 309.629 188.605 311.728 C 195.120 314.522, 204.923 317, 209.461 317 L 213.133 317 208.353 323.084 C 200.797 332.701, 197.873 334.226, 178.548 338.625 C 158.677 343.148, 151.997 347.719, 152.004 356.785 C 152.012 367.171, 161.094 374.346, 179.662 378.635 C 190.145 381.056, 209.028 381.075, 218 378.673 C 226.104 376.503, 235.887 371.987, 242.007 367.591 L 246.684 364.231 247.332 395.365 C 248.563 454.532, 251.226 470.366, 262.964 488.348 C 278.438 512.051, 304.308 518.114, 339.767 506.346 C 352.023 502.278, 358.817 498.204, 367.004 490.010 C 382.322 474.680, 385.713 462.025, 395.004 385.500 C 396.674 371.750, 398.227 359.975, 398.457 359.333 C 398.762 358.478, 402.992 358.316, 414.242 358.726 C 443.366 359.789, 463.621 354.756, 483.531 341.508 C 502.245 329.056, 508.191 316.387, 498.963 308.623 C 494.338 304.731, 490.167 304.429, 476.061 306.964 C 458.632 310.097, 442.368 310.728, 434.054 308.595 C 430.508 307.685, 427.419 306.752, 427.189 306.522 C 426.959 306.292, 430.914 299.218, 435.979 290.802 C 463.335 245.345, 485.174 191.030, 494.976 144.068 C 499.453 122.620, 500.458 113.683, 500.436 95.500 C 500.404 69.432, 497.250 60.831, 481.699 44.399 C 461.564 23.123, 436.908 9.589, 406.077 2.889 C 393.481 0.152, 358.548 -0.628, 343.610 1.494 M 360 16.587 C 358.075 16.809, 352.225 17.487, 347 18.093 C 336.502 19.312, 333.341 20.339, 336.756 21.423 C 337.901 21.786, 343.037 24.603, 348.169 27.683 C 382.462 48.265, 412.068 84.665, 424.365 121.364 C 427.739 131.434, 427.895 144.730, 424.863 164 C 422.227 180.760, 422.037 199.608, 424.321 218 C 426.368 234.485, 426.474 251.357, 424.591 261.162 C 423.114 268.854, 419.219 280.128, 416.374 284.943 C 415.380 286.626, 414.988 288.525, 415.407 289.619 C 416.001 291.165, 416.573 290.725, 418.965 286.883 C 457.051 225.691, 483.945 147.112, 484.295 96 C 484.406 79.827, 482.780 71.190, 478.447 64.929 C 474.594 59.360, 460.231 45.548, 452.500 39.976 C 438.366 29.790, 418.870 21.906, 399.433 18.516 C 391.168 17.075, 366.314 15.859, 360 16.587 M 249.168 23.080 C 237.952 24.817, 224.926 29.651, 214.280 36.026 C 194.301 47.991, 180.952 66.574, 171.408 95.710 C 168.353 105.038, 163.958 126.137, 162.693 137.546 L 162.245 141.593 169.097 138.319 C 204.754 121.286, 235.554 125.851, 246.733 149.827 C 251.889 160.885, 256.117 188.551, 256.081 211 C 256.045 233.719, 253.079 247.109, 242.868 270.660 C 237.439 283.182, 231 300.521, 231 302.619 C 231 303.553, 232.238 304, 234.822 304 C 245.468 304, 256.752 312.376, 260.846 323.319 C 262.596 327.996, 263.003 331.270, 263.015 340.788 C 263.024 348.298, 263.539 353.964, 264.451 356.580 C 268.226 367.412, 269.208 378.068, 269.974 416.500 C 270.474 441.637, 271.146 455.854, 271.959 458.500 C 278.867 480.999, 282.814 487.979, 291.098 492.345 C 296.292 495.083, 296.924 495.176, 307.500 494.750 C 321.476 494.187, 334.843 489.999, 345.573 482.823 C 360.581 472.785, 366.323 461.540, 369.481 436 C 370.331 429.125, 371.921 420.155, 373.013 416.068 C 374.106 411.980, 375 406.313, 375 403.474 C 375 400.636, 375.836 395.880, 376.858 392.907 C 377.880 389.933, 379.025 384.350, 379.401 380.500 C 379.778 376.650, 380.738 368.550, 381.535 362.500 C 382.332 356.450, 383.408 345.472, 383.926 338.105 C 384.765 326.187, 385.212 324.012, 387.979 318.391 C 391.195 311.858, 394.280 308.943, 401.619 305.500 L 405.883 303.500 398.918 294.123 C 395.087 288.965, 390.341 281.394, 388.370 277.297 C 386.400 273.200, 380.362 261.732, 374.952 251.813 C 357.051 218.986, 348.379 196.220, 346.134 176.154 C 344.317 159.909, 347.778 147.170, 356.333 138.615 C 365.390 129.557, 377.215 125.794, 396.772 125.745 C 411.213 125.709, 410.640 127.240, 402.482 110.500 C 380.503 65.399, 341.408 33.671, 296.535 24.518 C 286.934 22.560, 258.165 21.686, 249.168 23.080 M 91.849 25.503 C 70.736 29.492, 52.230 40.598, 42.113 55.349 C 35.224 65.393, 29.582 80.066, 26.865 95 C 25.991 99.801, 25.511 109.879, 25.531 123 C 25.557 139.938, 25.960 145.672, 27.847 156 C 44.241 245.728, 70.103 319.864, 94.364 346.672 C 99.178 351.991, 107.600 357, 111.728 357 C 115.161 357, 121.092 354.278, 124.370 351.197 C 125.948 349.714, 132.279 342.650, 138.439 335.500 C 144.599 328.350, 154.252 317.422, 159.889 311.216 L 170.139 299.933 165.040 294.353 C 154.805 283.154, 149.380 272.930, 145.862 258.209 C 144.098 250.830, 143.865 247.514, 144.333 236.500 C 144.637 229.350, 145.378 218.775, 145.980 213 C 146.684 206.253, 146.845 191.955, 146.432 173 C 145.902 148.680, 146.076 141.325, 147.423 131.112 C 150.588 107.117, 156.879 85.175, 165.547 67.895 C 170.888 57.250, 174.005 52.398, 181.711 42.739 C 185.297 38.243, 186.668 35.823, 185.802 35.518 C 179.532 33.308, 164.099 29.461, 153 27.341 C 135.986 24.093, 104.347 23.141, 91.849 25.503 M 388.500 141.595 C 360.983 145.448, 355.162 160.619, 367.243 197 C 371.149 208.764, 380.920 229.232, 398.020 261.477 L 404.372 273.454 405.790 269.979 C 410.210 259.148, 411.130 240.713, 408.361 218.500 C 406.087 200.257, 406.271 180.614, 408.875 163.695 C 410.044 156.102, 411 148.115, 411 145.945 C 411 142.471, 410.719 142, 408.651 142 C 407.359 142, 402.971 141.814, 398.901 141.587 C 394.830 141.361, 390.150 141.364, 388.500 141.595 M 194.292 145.999 C 185.386 148.333, 174.467 152.867, 167.321 157.197 L 161.912 160.476 162.550 179.988 C 162.946 192.089, 162.752 204.247, 162.040 212 C 158.878 246.385, 159.422 253.835, 166.110 267.774 C 174.573 285.411, 191.390 298.047, 209.629 300.472 L 214.758 301.154 216.892 294.131 C 218.065 290.268, 221.294 281.570, 224.067 274.803 C 238.557 239.447, 240.329 232.486, 240.307 211 C 240.286 190.938, 236.301 164.431, 232.053 156.104 C 226.400 145.023, 212.356 141.265, 194.292 145.999 M 376.962 150.250 C 371.884 152.811, 370.730 155.939, 373.667 159.185 C 377.937 163.903, 384.623 165.281, 389.931 162.536 C 393.552 160.663, 398 155.396, 398 152.980 C 398 147.755, 385.202 146.095, 376.962 150.250 M 203.228 153.230 C 196.647 156.402, 202.120 167.282, 211.616 169.904 C 216.020 171.121, 221.669 169.597, 225.238 166.231 C 230.529 161.241, 229.667 157.114, 222.669 153.937 C 217.984 151.810, 207.004 151.411, 203.228 153.230 M 409.741 319.429 C 407.673 320.167, 405.241 321.385, 404.336 322.135 C 401.769 324.264, 400 329.467, 400 334.890 C 400 339.718, 400.096 339.878, 403.750 341.144 C 406.145 341.974, 412.196 342.411, 420.500 342.352 C 438.615 342.225, 451.369 339.522, 464.500 333.030 C 473.778 328.442, 483.347 321.925, 478.534 323.471 C 477.453 323.818, 470.124 324.843, 462.246 325.749 C 443.415 327.913, 432.047 326.731, 421.361 321.497 C 417.434 319.574, 414.059 318.020, 413.861 318.044 C 413.662 318.068, 411.808 318.691, 409.741 319.429 M 225.253 328.750 C 211.012 346.358, 206.808 349.037, 185.333 354.190 C 178.275 355.884, 172.103 357.628, 171.619 358.066 C 171.134 358.504, 174.059 359.898, 178.119 361.164 C 188.027 364.254, 208.537 364.503, 217 361.637 C 227.526 358.072, 236.557 351.840, 243.110 343.619 C 246.157 339.797, 247 337.878, 247 334.771 C 247 329.487, 244.361 324.192, 240.580 321.886 C 234.789 318.354, 233.020 319.146, 225.253 328.750" stroke="none" fill="#040404" fill-rule="evenodd"/></svg>